<svg width="459" height="459" viewBox="0 0 459 459" fill="none" xmlns="http://www.w3.org/2000/svg">
<g opacity="0.7">
<path d="M361.363 207.438C357.055 207.438 353.551 203.934 353.551 199.626C353.551 195.319 357.055 191.815 361.363 191.815C365.671 191.815 369.174 195.319 369.174 199.626C369.174 203.934 365.671 207.438 361.363 207.438ZM361.363 194.815C358.71 194.815 356.551 196.973 356.551 199.626C356.551 202.279 358.709 204.438 361.363 204.438C364.016 204.438 366.174 202.279 366.174 199.626C366.174 196.973 364.016 194.815 361.363 194.815Z" fill="#FFAE42"/>
<path d="M431.965 23.418C427.657 23.418 424.154 19.914 424.154 15.606C424.154 11.299 427.658 7.79501 431.965 7.79501C436.272 7.79501 439.776 11.299 439.776 15.606C439.777 19.914 436.273 23.418 431.965 23.418ZM431.965 10.795C429.312 10.795 427.154 12.953 427.154 15.606C427.154 18.259 429.312 20.418 431.965 20.418C434.618 20.418 436.776 18.259 436.776 15.606C436.776 12.953 434.618 10.795 431.965 10.795Z" fill="#FFAE42"/>
<path d="M7.811 398.528C3.503 398.528 0 395.024 0 390.716C0 386.409 3.504 382.905 7.811 382.905C12.118 382.905 15.623 386.409 15.623 390.716C15.622 395.024 12.118 398.528 7.811 398.528ZM7.811 385.905C5.158 385.905 3 388.063 3 390.716C3 393.369 5.158 395.528 7.811 395.528C10.464 395.528 12.623 393.369 12.623 390.716C12.623 388.063 10.464 385.905 7.811 385.905Z" fill="#FFAE42"/>
<path d="M99.2168 209.252C94.9088 209.252 91.4048 205.748 91.4048 201.44C91.4048 197.133 94.9088 193.629 99.2168 193.629C103.525 193.629 107.029 197.133 107.029 201.44C107.029 205.748 103.525 209.252 99.2168 209.252ZM99.2168 196.629C96.5638 196.629 94.4048 198.787 94.4048 201.44C94.4048 204.093 96.5628 206.252 99.2168 206.252C101.87 206.252 104.029 204.093 104.029 201.44C104.029 198.787 101.871 196.629 99.2168 196.629Z" fill="#FFAE42"/>
<path d="M15.6221 46.307C11.3141 46.307 7.81006 42.803 7.81006 38.495C7.81006 34.188 11.3141 30.684 15.6221 30.684C19.9301 30.684 23.4341 34.188 23.4341 38.495C23.4341 42.803 19.9301 46.307 15.6221 46.307ZM15.6221 33.684C12.9691 33.684 10.8101 35.842 10.8101 38.495C10.8101 41.148 12.9681 43.307 15.6221 43.307C18.2751 43.307 20.4341 41.148 20.4341 38.495C20.4341 35.842 18.2761 33.684 15.6221 33.684Z" fill="#FFAE42"/>
<path d="M402.287 426.967C397.979 426.967 394.475 423.463 394.475 419.155C394.475 414.848 397.979 411.343 402.287 411.343C406.595 411.343 410.099 414.847 410.099 419.155C410.099 423.463 406.595 426.967 402.287 426.967ZM402.287 414.344C399.634 414.344 397.475 416.502 397.475 419.156C397.475 421.809 399.633 423.968 402.287 423.968C404.94 423.968 407.099 421.809 407.099 419.156C407.099 416.502 404.94 414.344 402.287 414.344Z" fill="#FFAE42"/>
</g>
<path d="M82.1036 53.788H79.6336V51.318C79.6336 50.877 79.2756 50.519 78.8346 50.519C78.3936 50.519 78.0356 50.876 78.0356 51.318V53.788H75.5646C75.1236 53.788 74.7656 54.146 74.7656 54.587C74.7656 55.028 75.1236 55.386 75.5646 55.386H78.0356V57.856C78.0356 58.297 78.3936 58.655 78.8346 58.655C79.2756 58.655 79.6336 58.297 79.6336 57.856V55.386H82.1036C82.5446 55.386 82.9026 55.028 82.9026 54.587C82.9026 54.146 82.5446 53.788 82.1036 53.788Z" fill="#DEC3FC"/>
<path d="M7.49279 221.447H5.02279V218.977C5.02279 218.536 4.66479 218.178 4.22379 218.178C3.78279 218.178 3.42479 218.535 3.42479 218.977V221.447H0.953785C0.512785 221.447 0.154785 221.804 0.154785 222.246C0.154785 222.688 0.512785 223.045 0.953785 223.045H3.42479V225.515C3.42479 225.956 3.78279 226.314 4.22379 226.314C4.66479 226.314 5.02279 225.956 5.02279 225.515V223.045H7.49279C7.93379 223.045 8.29179 222.687 8.29179 222.246C8.29179 221.805 7.93379 221.447 7.49279 221.447Z" fill="#DEC3FC"/>
<path d="M277.584 3.269H275.114V0.799C275.114 0.358 274.756 0 274.315 0C273.874 0 273.516 0.358 273.516 0.799V3.269H271.046C270.605 3.269 270.247 3.627 270.247 4.068C270.247 4.509 270.605 4.867 271.046 4.867H273.516V7.337C273.516 7.778 273.874 8.136 274.315 8.136C274.756 8.136 275.114 7.778 275.114 7.337V4.867H277.584C278.025 4.867 278.383 4.509 278.383 4.068C278.383 3.627 278.025 3.269 277.584 3.269Z" fill="#DEC3FC"/>
<path d="M355.185 137.274H352.715V134.804C352.715 134.363 352.357 134.005 351.916 134.005C351.475 134.005 351.117 134.363 351.117 134.804V137.274H348.646C348.205 137.274 347.847 137.632 347.847 138.073C347.847 138.514 348.205 138.872 348.646 138.872H351.117V141.342C351.117 141.783 351.475 142.141 351.916 142.141C352.357 142.141 352.715 141.783 352.715 141.342V138.872H355.185C355.626 138.872 355.984 138.515 355.984 138.073C355.984 137.631 355.626 137.274 355.185 137.274Z" fill="#DEC3FC"/>
<path d="M457.631 322.32H455.161V319.85C455.161 319.409 454.803 319.051 454.362 319.051C453.921 319.051 453.563 319.408 453.563 319.85V322.32H451.093C450.652 322.32 450.294 322.677 450.294 323.119C450.294 323.56 450.652 323.918 451.093 323.918H453.563V326.388C453.563 326.829 453.921 327.187 454.362 327.187C454.803 327.187 455.161 326.829 455.161 326.388V323.918H457.631C458.072 323.918 458.43 323.56 458.43 323.119C458.429 322.677 458.071 322.32 457.631 322.32Z" fill="#DEC3FC"/>
<path d="M74.6768 418.357H72.2068V415.887C72.2068 415.446 71.8488 415.088 71.4078 415.088C70.9668 415.088 70.6088 415.446 70.6088 415.887V418.357H68.1388C67.6978 418.357 67.3398 418.715 67.3398 419.156C67.3398 419.597 67.6978 419.955 68.1388 419.955H70.6098V422.425C70.6098 422.866 70.9678 423.224 71.4088 423.224C71.8498 423.224 72.2078 422.866 72.2078 422.425V419.955H74.6778C75.1188 419.955 75.4768 419.597 75.4768 419.156C75.4758 418.714 75.1188 418.357 74.6768 418.357Z" fill="#DEC3FC"/>
<g opacity="0.5">
<path d="M450.245 192.969C448.315 192.969 448.311 195.969 450.245 195.969C452.175 195.969 452.178 192.969 450.245 192.969Z" fill="#FFAE42"/>
<path d="M135.038 237.43C133.108 237.43 133.104 240.43 135.038 240.43C136.968 240.43 136.972 237.43 135.038 237.43Z" fill="#FFAE42"/>
<path d="M24.8821 106.039C22.9521 106.039 22.9481 109.039 24.8821 109.039C26.8121 109.039 26.8151 106.039 24.8821 106.039Z" fill="#FFAE42"/>
<path d="M35.2039 455.089C33.2739 455.089 33.2699 458.089 35.2039 458.089C37.1339 458.089 37.1379 455.089 35.2039 455.089Z" fill="#FFAE42"/>
<path d="M451.694 441.681C449.764 441.681 449.76 444.681 451.694 444.681C453.624 444.681 453.627 441.681 451.694 441.681Z" fill="#FFAE42"/>
<path d="M284.347 188.324C282.417 188.324 282.413 191.324 284.347 191.324C286.277 191.324 286.28 188.324 284.347 188.324Z" fill="#FFAE42"/>
<path d="M135.702 4.509C133.772 4.509 133.768 7.509 135.702 7.509C137.632 7.509 137.635 4.509 135.702 4.509Z" fill="#FFAE42"/>
<path d="M423.037 62.241C421.107 62.241 421.103 65.241 423.037 65.241C424.968 65.241 424.971 62.241 423.037 62.241Z" fill="#FFAE42"/>
</g>
<path d="M233.522 449.55C347.841 449.55 440.515 356.876 440.515 242.557C440.515 128.238 347.841 35.564 233.522 35.564C119.203 35.564 26.5288 128.238 26.5288 242.557C26.5288 356.876 119.203 449.55 233.522 449.55Z" fill="#FFAE42" fill-opacity="0.5"/>
<path d="M228.564 455.164C312.222 455.164 380.04 446.18 380.04 435.097C380.04 424.014 312.222 415.03 228.564 415.03C144.906 415.03 77.0879 424.014 77.0879 435.097C77.0879 446.18 144.906 455.164 228.564 455.164Z" fill="#FCD3D0"/>
<path d="M371.034 367C394.143 325.967 404.464 287.964 394.086 282.12C383.707 276.275 356.561 304.801 333.451 345.834C310.342 386.867 300.022 424.87 310.4 430.715C320.778 436.559 347.925 408.033 371.034 367Z" fill="#EDD9FF"/>
<path d="M350.778 398.559L326.098 403.905L341.311 376.896L368.809 370.94C369.033 370.554 369.255 370.16 369.479 369.771L341.967 375.73L357.179 348.721L383.281 343.067C383.455 342.688 383.628 342.309 383.799 341.931L357.836 347.555L373.049 320.545L393.773 316.056C393.886 315.69 394 315.322 394.109 314.96L373.705 319.379L394.519 282.425C394.381 282.33 394.254 282.218 394.108 282.136C393.962 282.054 393.801 282.003 393.648 281.934L372.834 318.887L366.037 299.147C365.784 299.428 365.528 299.716 365.274 300.002L372.177 320.052L356.964 347.061L348.316 321.943C348.082 322.285 347.847 322.629 347.613 322.974L356.307 348.227L341.097 375.239L331.933 348.623C331.717 349.016 331.495 349.41 331.281 349.802L340.441 376.405L325.228 403.414L317.007 379.537C316.812 380.012 316.626 380.48 316.436 380.95L324.572 404.579L310.005 430.443C310.143 430.538 310.27 430.65 310.416 430.732C310.562 430.814 310.723 430.865 310.876 430.934L325.443 405.07L349.867 399.78C350.17 399.373 350.474 398.972 350.778 398.559Z" fill="#DEC3FC"/>
<path d="M376.852 400.519C407.35 376.214 427.089 350.259 420.942 342.546C414.795 334.832 385.089 348.281 354.592 372.586C324.094 396.89 304.355 422.845 310.502 430.559C316.649 438.272 346.355 424.823 376.852 400.519Z" fill="#DEC3FC"/>
<path d="M351.509 418.435L330.905 414.862L350.981 398.864L373.938 402.845C374.23 402.618 374.523 402.385 374.816 402.157L351.848 398.174L371.923 382.176L393.714 385.954C393.965 385.717 394.216 385.48 394.464 385.244L372.789 381.486L392.865 365.488L410.167 368.488C410.368 368.242 410.57 367.995 410.766 367.751L393.732 364.797L421.199 342.908C421.123 342.792 421.06 342.667 420.973 342.558C420.887 342.449 420.778 342.36 420.683 342.26L393.216 364.148L394.139 346.884C393.857 347.021 393.572 347.163 393.287 347.303L392.35 364.838L372.274 380.836L373.449 358.869C373.163 359.058 372.876 359.25 372.589 359.442L371.408 381.527L351.333 397.525L352.577 374.247C352.289 374.481 351.996 374.714 351.71 374.949L350.466 398.216L330.39 414.214L331.506 393.332C331.209 393.636 330.92 393.937 330.628 394.239L329.523 414.904L310.299 430.224C310.375 430.34 310.438 430.465 310.525 430.574C310.612 430.683 310.72 430.772 310.815 430.872L330.039 415.552L350.429 419.088C350.789 418.871 351.147 418.657 351.509 418.435Z" fill="#EDD9FF"/>
<path d="M278.925 381.308L315.641 369.89C326.536 359.017 334.696 346.096 340.805 332.823L309.766 335.464L344.268 324.735C349.118 312.54 352.372 300.339 354.557 289.424L340.069 289.258L355.812 282.642C359.076 263.441 359.015 249.659 359.015 249.659C359.015 249.659 339.363 257.551 317.245 273.311L318.419 298.68L311.06 277.885C302.397 284.535 293.605 292.359 285.671 301.355L289.287 339.126L280.017 308.168C262.017 331.275 250.44 361.215 259.234 397.973C277.728 395.149 292.79 388.328 305.064 379.084L278.925 381.308Z" fill="#FFAE42" fill-opacity="0.5"/>
<path d="M332.055 349.09L286.694 357.964L317.134 312.718L350.526 306.185C350.618 305.86 350.701 305.539 350.791 305.215L317.845 311.66L359.008 250.475C359.015 249.944 359.014 249.658 359.014 249.658C359.014 249.658 358.747 249.766 358.261 249.971L335.999 283.062L332.176 263.524C331.902 263.689 331.631 263.851 331.355 264.019L335.287 284.119L304.847 329.365L297.085 289.684C296.826 289.925 296.568 290.169 296.309 290.412L304.136 330.422L273.696 375.668L265.22 332.344C265.004 332.819 264.792 333.297 264.582 333.776L272.984 376.725L259.097 397.367C259.144 397.57 259.184 397.769 259.232 397.972C259.439 397.94 259.639 397.902 259.845 397.869L285.981 359.02L331.396 350.135C331.62 349.789 331.837 349.439 332.055 349.09Z" fill="#FFC2D1"/>
<path d="M336.228 364.969C335.469 368.48 343.559 373.209 354.298 375.532C365.037 377.855 374.359 376.892 375.118 373.381C375.877 369.87 367.787 365.141 357.048 362.818C349.431 361.171 342.545 361.183 338.903 362.579C345.37 356.904 351.54 350.89 357.372 344.558C357.29 344.912 357.258 345.26 357.331 345.595C358.097 349.104 367.42 350.05 378.155 347.707C388.89 345.364 396.971 340.62 396.205 337.11C395.439 333.601 386.116 332.655 375.381 334.998C369.435 336.296 364.311 338.331 361.045 340.485C365.779 335.105 370.269 329.507 374.508 323.718C377.592 325.343 384.911 319.876 391.145 311.206C397.559 302.285 400.395 293.353 397.479 291.257C394.562 289.16 386.998 294.692 380.584 303.612C374.509 312.061 371.648 320.515 373.839 323.168C371.769 325.996 369.64 328.779 367.449 331.511C368.928 327.825 369.673 321.766 369.251 314.973C368.57 304.007 365.112 295.297 361.527 295.519C357.942 295.742 355.587 304.812 356.268 315.778C356.949 326.744 360.407 335.454 363.992 335.232C364.163 335.221 364.328 335.173 364.493 335.122C359.013 341.689 353.191 347.964 347.05 353.907C348.796 350.402 349.556 343.641 348.795 335.996C347.707 325.062 343.927 316.488 340.352 316.843C336.777 317.198 334.762 326.351 335.851 337.284C336.939 348.218 340.719 356.792 344.294 356.437C344.338 356.433 344.38 356.411 344.424 356.403C338.587 361.887 332.478 367.079 326.128 371.959C328.086 368.599 329.157 361.745 328.67 353.902C327.99 342.936 324.531 334.226 320.946 334.448C317.361 334.671 315.006 343.741 315.687 354.707C316.356 365.492 319.713 374.075 323.234 374.144C315.815 379.671 308.082 384.778 300.073 389.422C302.491 386.526 304.196 379.327 304.176 370.887C304.151 359.9 301.218 350.999 297.626 351.007C294.034 351.015 291.143 359.929 291.168 370.917C291.193 381.866 294.106 390.737 297.681 390.791C287.51 396.534 276.916 401.547 265.979 405.743C265.755 405.828 265.644 406.078 265.73 406.301C265.758 406.377 265.807 406.44 265.867 406.487C265.983 406.578 266.141 406.607 266.289 406.55C281.123 400.859 295.33 393.677 308.702 385.197C308.697 385.211 308.689 385.225 308.684 385.239C307.522 388.638 315.007 394.276 325.403 397.831C335.799 401.387 345.169 401.514 346.332 398.115C347.495 394.716 340.009 389.079 329.613 385.523C322.476 383.082 315.824 382.257 311.978 383.079C320.446 377.517 328.564 371.43 336.271 364.86C336.259 364.9 336.237 364.932 336.228 364.969Z" fill="#FFC2D1"/>
<path d="M390.536 312.038L381.924 313.446L397.729 291.466C397.651 291.39 397.568 291.32 397.48 291.256C397.392 291.193 397.299 291.137 397.202 291.087L387.847 304.098L386.608 296.52C386.42 296.705 386.231 296.893 386.042 297.085L387.31 304.844L374.002 323.352C374.08 323.428 374.162 323.498 374.25 323.561C374.338 323.625 374.431 323.681 374.528 323.73L381.386 314.192L389.966 312.79C390.157 312.542 390.347 312.291 390.536 312.038Z" fill="#FFAE42" fill-opacity="0.5"/>
<path d="M377.145 347.918L369.8 343.205L396.249 337.432C396.242 337.324 396.227 337.216 396.204 337.109C396.181 337.003 396.149 336.899 396.11 336.798L380.454 340.215L384.601 333.752C384.337 333.764 384.072 333.777 383.802 333.794L379.557 340.411L357.286 345.272C357.293 345.38 357.308 345.488 357.331 345.594C357.354 345.7 357.386 345.804 357.425 345.906L368.903 343.401L376.22 348.096C376.527 348.039 376.835 347.98 377.145 347.918Z" fill="#FFAE42" fill-opacity="0.5"/>
<path d="M353.292 375.305L348.565 367.969L375.025 373.692C375.064 373.59 375.095 373.486 375.118 373.38C375.141 373.274 375.155 373.166 375.162 373.058L359.499 369.67L365.954 365.511C365.709 365.412 365.462 365.314 365.21 365.218L358.601 369.477L336.321 364.658C336.282 364.76 336.251 364.863 336.228 364.969C336.205 365.075 336.191 365.183 336.184 365.292L347.667 367.776L352.376 375.084C352.679 375.159 352.984 375.233 353.292 375.305Z" fill="#FFAE42" fill-opacity="0.5"/>
<path d="M324.429 397.493L320.587 389.657L346.202 398.418C346.252 398.322 346.296 398.222 346.331 398.119C346.366 398.016 346.393 397.911 346.412 397.804L331.249 392.618L338.144 389.237C337.912 389.11 337.678 388.984 337.439 388.859L330.38 392.32L308.811 384.943C308.761 385.039 308.718 385.139 308.682 385.241C308.647 385.344 308.62 385.449 308.601 385.556L319.717 389.358L323.544 397.164C323.837 397.276 324.131 397.385 324.429 397.493Z" fill="#FFAE42" fill-opacity="0.5"/>
<path d="M369.306 316.003L363.529 322.544L361.852 295.524C361.744 295.515 361.635 295.512 361.526 295.519C361.418 295.526 361.31 295.541 361.204 295.564L362.197 311.558L356.441 306.475C356.412 306.737 356.385 307.002 356.361 307.271L362.254 312.475L363.666 335.227C363.774 335.236 363.882 335.239 363.991 335.232C364.1 335.225 364.207 335.21 364.313 335.187L363.585 323.462L369.34 316.946C369.332 316.633 369.321 316.319 369.306 316.003Z" fill="#FFAE42" fill-opacity="0.5"/>
<path d="M348.889 337.024L343.36 343.776L340.679 316.837C340.57 316.832 340.462 316.833 340.353 316.844C340.245 316.855 340.138 316.874 340.033 316.901L341.62 332.847L335.679 327.982C335.66 328.245 335.643 328.511 335.628 328.78L341.711 333.761L343.969 356.445C344.077 356.45 344.186 356.449 344.294 356.438C344.402 356.427 344.509 356.408 344.615 356.381L343.451 344.691L348.959 337.965C348.938 337.652 348.915 337.339 348.889 337.024Z" fill="#FFAE42" fill-opacity="0.5"/>
<path d="M328.726 354.934L322.949 361.475L321.272 334.455C321.164 334.445 321.055 334.443 320.946 334.45C320.837 334.457 320.73 334.472 320.624 334.495L321.617 350.489L315.861 345.406C315.832 345.668 315.805 345.933 315.781 346.202L321.674 351.406L323.086 374.158C323.194 374.167 323.302 374.17 323.411 374.163C323.52 374.156 323.627 374.141 323.734 374.118L323.006 362.393L328.761 355.877C328.752 355.564 328.74 355.25 328.726 354.934Z" fill="#FFAE42" fill-opacity="0.5"/>
<path d="M304.171 371.921L298.015 378.106L297.952 351.034C297.844 351.018 297.736 351.009 297.627 351.01C297.518 351.01 297.41 351.019 297.303 351.036L297.34 367.061L291.897 361.644C291.853 361.904 291.81 362.167 291.769 362.434L297.341 367.98L297.394 390.776C297.501 390.792 297.609 390.8 297.718 390.8C297.827 390.8 297.935 390.791 298.043 390.774L298.016 379.026L304.149 372.865C304.159 372.552 304.166 372.238 304.171 371.921Z" fill="#FFAE42" fill-opacity="0.5"/>
<path d="M213.554 410.588C224.286 402.657 207.569 361.83 176.215 319.396C144.861 276.963 110.743 248.993 100.01 256.923C89.2779 264.853 105.995 305.681 137.349 348.114C168.703 390.547 202.821 418.518 213.554 410.588Z" fill="#EDD9FF"/>
<path d="M199.144 354.576L193.297 382.254L172.66 354.324L179.175 323.485C178.883 323.079 178.582 322.671 178.288 322.265L171.77 353.119L151.133 325.189L157.317 295.916C157.009 295.565 156.701 295.214 156.393 294.867L150.242 323.984L129.605 296.054L134.515 272.812C134.192 272.529 133.869 272.243 133.548 271.966L128.714 294.849L100.479 256.636C100.319 256.733 100.146 256.812 99.9946 256.924C99.8436 257.036 99.7176 257.177 99.5776 257.302L127.813 295.515L104.52 293.415C104.691 293.803 104.868 294.196 105.044 294.587L128.703 296.72L149.34 324.65L119.7 321.977C119.942 322.373 120.187 322.77 120.432 323.168L150.23 325.855L170.866 353.784L139.458 350.952C139.76 351.353 140.062 351.76 140.364 352.159L171.757 354.989L192.394 382.919L164.219 380.379C164.615 380.796 165.008 381.201 165.402 381.611L193.285 384.125L213.046 410.87C213.206 410.772 213.379 410.694 213.53 410.582C213.681 410.47 213.807 410.329 213.947 410.204L194.186 383.459L199.973 356.068C199.698 355.571 199.426 355.077 199.144 354.576Z" fill="#DEC3FC"/>
<path d="M213.433 410.47C220.295 401.29 196.435 371.854 160.141 344.723C123.846 317.591 88.8611 303.039 81.999 312.218C75.137 321.398 98.9968 350.834 135.291 377.965C171.586 405.096 206.571 419.649 213.433 410.47Z" fill="#DEC3FC"/>
<path d="M187.754 367.981L189.801 392.194L165.909 374.334L163.629 347.356C163.288 347.094 162.94 346.834 162.597 346.572L164.879 373.563L140.988 355.704L138.823 330.096C138.483 329.884 138.143 329.671 137.803 329.462L139.957 354.933L116.065 337.073L114.346 316.741C114.01 316.588 113.674 316.433 113.341 316.285L115.033 336.303L82.3446 311.867C82.2366 311.987 82.1146 312.094 82.0176 312.224C81.9206 312.353 81.8526 312.501 81.7676 312.638L114.456 337.074L94.7776 341.117C95.0136 341.394 95.2576 341.673 95.4996 341.951L115.488 337.845L139.38 355.705L114.34 360.848C114.637 361.114 114.937 361.38 115.237 361.646L140.411 356.475L164.302 374.334L137.768 379.785C138.116 380.04 138.465 380.3 138.812 380.553L165.333 375.105L189.225 392.965L165.423 397.855C165.852 398.1 166.275 398.335 166.701 398.575L190.257 393.736L213.135 410.838C213.243 410.718 213.365 410.611 213.462 410.481C213.559 410.352 213.627 410.204 213.711 410.067L190.833 392.965L188.808 369.003C188.457 368.663 188.111 368.323 187.754 367.981Z" fill="#EDD9FF"/>
<path d="M146.956 406.113L135.64 369.366C124.797 358.44 111.899 350.245 98.6428 344.099L101.198 375.145L90.5638 340.613C78.3828 335.73 66.1908 332.441 55.2818 330.226L55.0758 344.714L48.5028 328.953C29.3108 325.636 15.5288 325.659 15.5288 325.659C15.5288 325.659 23.3668 345.333 39.0658 367.494L64.4378 366.39L43.6228 373.691C50.2488 382.372 58.0488 391.186 67.0228 399.145L104.803 395.634L73.8198 404.818C96.8768 422.882 126.785 434.542 163.567 425.849C160.794 407.347 154.015 392.266 144.805 379.966L146.956 406.113Z" fill="#FFAE42" fill-opacity="0.5"/>
<path d="M114.885 352.894L123.634 398.279L78.4718 367.714L72.0318 334.304C71.7068 334.211 71.3868 334.127 71.0628 334.036L77.4168 366.999L16.3458 325.667C15.8148 325.658 15.5288 325.658 15.5288 325.658C15.5288 325.658 15.6358 325.926 15.8398 326.412L48.8688 348.766L29.3208 352.534C29.4848 352.808 29.6468 353.08 29.8138 353.356L49.9248 349.479L95.0868 380.044L55.3848 387.697C55.6248 387.957 55.8678 388.216 56.1098 388.475L96.1418 380.759L141.303 411.324L97.9558 419.68C98.4308 419.897 98.9078 420.111 99.3868 420.322L142.359 412.039L162.963 425.984C163.166 425.937 163.365 425.898 163.569 425.851C163.538 425.644 163.5 425.444 163.468 425.238L124.692 398.994L115.933 353.554C115.582 353.331 115.233 353.113 114.885 352.894Z" fill="#FFC2D1"/>
<path d="M108.993 371.288C109.752 374.799 101.662 379.528 90.9227 381.851C80.1837 384.174 70.8627 383.211 70.1027 379.7C69.3437 376.189 77.4337 371.46 88.1727 369.137C95.7897 367.49 102.676 367.502 106.317 368.898C99.8497 363.223 93.6797 357.209 87.8487 350.877C87.9317 351.231 87.9627 351.579 87.8897 351.914C87.1237 355.424 77.8007 356.369 67.0657 354.026C56.3307 351.683 48.2497 346.939 49.0157 343.429C49.7817 339.919 59.1047 338.974 69.8397 341.317C75.7857 342.615 80.9097 344.65 84.1747 346.804C79.4407 341.424 74.9507 335.826 70.7117 330.037C67.6277 331.662 60.3087 326.195 54.0747 317.525C47.6607 308.604 44.8247 299.672 47.7407 297.576C50.6577 295.479 58.2217 301.011 64.6357 309.932C70.7107 318.381 73.5727 326.835 71.3807 329.488C73.4507 332.316 75.5797 335.099 77.7707 337.831C76.2917 334.145 75.5467 328.086 75.9687 321.293C76.6497 310.327 80.1077 301.617 83.6927 301.839C87.2777 302.062 89.6327 311.132 88.9517 322.098C88.2707 333.064 84.8127 341.774 81.2277 341.552C81.0567 341.541 80.8917 341.493 80.7257 341.442C86.2057 348.009 92.0287 354.284 98.1687 360.227C96.4227 356.722 95.6627 349.96 96.4237 342.316C97.5117 331.383 101.292 322.808 104.867 323.163C108.441 323.519 110.457 332.671 109.368 343.604C108.28 354.538 104.5 363.112 100.925 362.756C100.88 362.752 100.839 362.73 100.795 362.722C106.633 368.206 112.741 373.398 119.091 378.278C117.133 374.918 116.062 368.064 116.549 360.221C117.229 349.255 120.688 340.545 124.273 340.768C127.858 340.991 130.213 350.061 129.532 361.027C128.862 371.812 125.506 380.395 121.985 380.464C129.404 385.991 137.137 391.098 145.146 395.742C142.728 392.846 141.023 385.647 141.043 377.207C141.068 366.219 144.001 357.319 147.593 357.327C151.185 357.335 154.076 366.249 154.051 377.237C154.026 388.186 151.113 397.057 147.538 397.111C157.709 402.854 168.303 407.867 179.24 412.063C179.464 412.148 179.575 412.398 179.489 412.621C179.461 412.697 179.412 412.76 179.352 412.807C179.236 412.898 179.078 412.927 178.931 412.87C164.097 407.179 149.89 399.997 136.518 391.517C136.523 391.531 136.531 391.545 136.536 391.559C137.699 394.958 130.213 400.596 119.817 404.151C109.421 407.707 100.051 407.834 98.8877 404.435C97.7247 401.036 105.211 395.398 115.607 391.843C122.744 389.402 129.396 388.577 133.242 389.399C124.774 383.837 116.656 377.75 108.949 371.18C108.962 371.218 108.985 371.251 108.993 371.288Z" fill="#FFC2D1"/>
<path d="M54.6837 318.356L63.2957 319.764L47.4907 297.784C47.5687 297.708 47.6517 297.638 47.7397 297.574C47.8277 297.51 47.9207 297.455 48.0177 297.405L57.3727 310.416L58.6117 302.838C58.7997 303.023 58.9887 303.211 59.1777 303.403L57.9087 311.162L71.2167 329.67C71.1387 329.746 71.0567 329.816 70.9687 329.879C70.8807 329.943 70.7877 329.999 70.6907 330.048L63.8327 320.51L55.2527 319.108C55.0627 318.86 54.8727 318.61 54.6837 318.356Z" fill="#FFAE42" fill-opacity="0.5"/>
<path d="M68.0757 354.237L75.4207 349.524L48.9707 343.751C48.9777 343.642 48.9917 343.535 49.0157 343.428C49.0387 343.322 49.0707 343.218 49.1097 343.117L64.7657 346.534L60.6187 340.071C60.8827 340.083 61.1487 340.096 61.4177 340.113L65.6627 346.73L87.9337 351.591C87.9267 351.699 87.9127 351.807 87.8887 351.913C87.8657 352.019 87.8337 352.123 87.7947 352.225L76.3167 349.72L68.9997 354.415C68.6937 354.358 68.3857 354.299 68.0757 354.237Z" fill="#FFAE42" fill-opacity="0.5"/>
<path d="M91.9286 381.624L96.6556 374.288L70.1956 380.011C70.1566 379.909 70.1256 379.805 70.1026 379.699C70.0796 379.593 70.0656 379.485 70.0586 379.377L85.7216 375.989L79.2666 371.83C79.5116 371.731 79.7586 371.633 80.0106 371.537L86.6186 375.796L108.899 370.977C108.937 371.079 108.969 371.182 108.992 371.288C109.015 371.394 109.029 371.502 109.036 371.611L97.5526 374.095L92.8436 381.403C92.5416 381.478 92.2366 381.552 91.9286 381.624Z" fill="#FFAE42" fill-opacity="0.5"/>
<path d="M120.792 403.811L124.634 395.975L99.0186 404.736C98.9686 404.639 98.9246 404.54 98.8896 404.437C98.8546 404.334 98.8276 404.229 98.8086 404.122L113.972 398.936L107.077 395.555C107.308 395.428 107.543 395.302 107.782 395.177L114.841 398.638L136.41 391.261C136.46 391.357 136.503 391.457 136.538 391.559C136.573 391.662 136.6 391.767 136.619 391.874L125.503 395.676L121.676 403.482C121.384 403.595 121.09 403.704 120.792 403.811Z" fill="#FFAE42" fill-opacity="0.5"/>
<path d="M75.9139 322.321L81.6909 328.862L83.3679 301.842C83.4759 301.832 83.5849 301.83 83.6939 301.837C83.8019 301.844 83.9099 301.859 84.0159 301.882L83.0229 317.876L88.7789 312.793C88.8079 313.055 88.8349 313.32 88.8589 313.589L82.9659 318.793L81.5539 341.545C81.4459 341.554 81.3379 341.557 81.2289 341.55C81.1199 341.543 81.0129 341.528 80.9059 341.505L81.6339 329.779L75.8789 323.263C75.8879 322.951 75.8989 322.638 75.9139 322.321Z" fill="#FFAE42" fill-opacity="0.5"/>
<path d="M96.3307 343.343L101.86 350.094L104.541 323.155C104.65 323.15 104.758 323.151 104.867 323.162C104.975 323.173 105.082 323.192 105.187 323.219L103.6 339.165L109.541 334.3C109.56 334.563 109.577 334.829 109.592 335.098L103.509 340.079L101.251 362.762C101.143 362.767 101.034 362.766 100.926 362.755C100.818 362.744 100.711 362.725 100.605 362.698L101.769 351.008L96.2607 344.282C96.2817 343.971 96.3047 343.658 96.3307 343.343Z" fill="#FFAE42" fill-opacity="0.5"/>
<path d="M116.495 361.252L122.272 367.793L123.949 340.773C124.057 340.763 124.166 340.761 124.275 340.768C124.383 340.775 124.491 340.79 124.597 340.813L123.604 356.807L129.36 351.724C129.389 351.986 129.416 352.251 129.44 352.52L123.547 357.724L122.135 380.476C122.027 380.485 121.919 380.488 121.81 380.481C121.701 380.474 121.594 380.459 121.488 380.436L122.216 368.711L116.461 362.195C116.469 361.882 116.481 361.568 116.495 361.252Z" fill="#FFAE42" fill-opacity="0.5"/>
<path d="M141.05 378.24L147.206 384.425L147.269 357.353C147.377 357.337 147.485 357.328 147.594 357.329C147.703 357.329 147.811 357.338 147.918 357.355L147.881 373.38L153.323 367.963C153.367 368.223 153.41 368.486 153.451 368.753L147.879 374.299L147.826 397.095C147.719 397.111 147.611 397.12 147.502 397.119C147.393 397.119 147.285 397.11 147.177 397.093L147.204 385.345L141.071 379.184C141.062 378.87 141.055 378.556 141.05 378.24Z" fill="#FFAE42" fill-opacity="0.5"/>
<path d="M298.475 214.686C296.366 206.974 240.511 160.752 240.511 160.752C240.511 160.752 234.987 130.539 234.209 126.602C233.313 122.067 230.413 123.86 230.413 123.86C230.413 123.86 227.513 122.067 226.617 126.602C225.839 130.538 220.315 160.752 220.315 160.752C220.315 160.752 164.46 206.974 162.351 214.686C160.242 222.398 168.21 264.111 178.38 291.169C181.768 300.183 196.268 334.177 199.557 363.374V363.372L200.465 371.83H230.414H260.363L261.271 363.372V363.374C264.559 334.178 279.06 300.183 282.448 291.169C292.616 264.111 300.584 222.398 298.475 214.686ZM276.462 227.261C276.334 228.656 276.144 230.19 275.901 231.838L275.891 231.92L275.889 231.917C274.759 239.535 272.55 249.469 270.577 258.466C269.101 265.103 267.103 272.669 263.24 271.342L263.244 271.346C251.621 267.674 240.114 265.957 240.114 265.957V235.706H220.711V265.957C220.711 265.957 209.204 267.674 197.581 271.346L197.585 271.342C193.726 272.667 191.728 265.117 190.253 258.485C188.279 249.483 186.067 239.541 184.937 231.917L184.935 231.92L184.925 231.838C184.682 230.19 184.492 228.656 184.364 227.261L183.653 221.46C183.653 221.46 185.419 219.127 186.713 217.412C186.878 217.192 187.051 216.963 187.231 216.725C187.297 216.638 187.362 216.551 187.422 216.472V216.473C195.446 205.872 223.18 171.939 229.25 164.613C230.006 163.701 230.413 162.562 230.414 161.378C230.414 162.562 230.822 163.701 231.577 164.613C237.647 171.939 265.381 205.872 273.405 216.473V216.472C273.465 216.551 273.53 216.638 273.596 216.725C273.776 216.963 273.949 217.192 274.114 217.412C275.408 219.127 277.174 221.46 277.174 221.46L276.462 227.261Z" fill="#E2AC86"/>
<path opacity="0.7" d="M298.475 214.686C296.366 206.974 240.511 160.752 240.511 160.752C240.511 160.752 234.987 130.539 234.209 126.602C233.644 123.746 232.286 123.401 231.357 123.536C231.287 128.431 231.583 133.785 231.628 135.801C231.775 142.245 232.621 152.796 234.831 158.85C237.039 164.898 240.618 166.456 244.724 171.421C245.234 172.038 245.758 172.643 246.295 173.236C252.903 180.532 261.257 185.978 268.816 192.284C276.375 198.59 283.429 206.232 285.954 215.747C289.48 229.035 283.574 242.733 279.346 255.814C274.256 271.557 271.497 288.052 271.186 304.594C271.121 308.054 271.334 311.88 273.645 314.405V314.404C274.588 311.729 275.512 309.198 276.394 306.836C276.408 306.799 276.421 306.762 276.435 306.726C276.646 306.163 276.853 305.611 277.058 305.069C277.072 305.031 277.087 304.993 277.101 304.956C278.925 300.13 280.515 296.142 281.606 293.348C281.643 293.254 281.68 293.158 281.716 293.067C281.814 292.814 281.905 292.58 281.995 292.348C282.035 292.244 282.078 292.134 282.116 292.034C282.234 291.726 282.346 291.435 282.445 291.169C292.616 264.111 300.584 222.398 298.475 214.686Z" fill="#D19A7C"/>
<path opacity="0.7" d="M271.349 321.123C269.542 319.834 267.653 318.66 265.706 317.623C256.538 312.744 246.217 310.471 235.945 308.937C222.805 306.975 208.55 306.341 197.098 313.076L191.062 326.036C192.174 329.573 193.254 333.232 194.264 336.958C200.424 340.569 208.139 341.802 215.428 341.962C225.359 342.18 235.481 340.905 245.108 343.354C248.895 344.318 252.993 346.345 253.972 350.128C254.793 353.3 253.009 356.689 250.431 358.712C247.854 360.735 244.613 361.677 241.457 362.557C240.015 362.959 238.539 363.373 237.323 364.245C236.106 365.117 235.183 366.557 235.35 368.045C235.565 369.96 237.315 371.105 239.208 371.829H260.361L261.269 363.371V363.373C262.855 349.29 267.051 334.097 271.349 321.123Z" fill="#D19A7C"/>
<path opacity="0.7" d="M240.114 265.956V262.469V252.197V235.705H220.711V259.261C224.511 261.716 229.018 263.167 233.866 263.218C234.09 263.864 234.39 264.484 234.788 265.051C236.423 267.379 239.111 268.675 241.505 270.212C243.899 271.748 246.261 273.923 246.486 276.759C246.68 279.201 245.161 281.535 243.151 282.936C241.141 284.337 238.702 284.96 236.3 285.443C230.626 286.584 224.703 287.078 219.08 285.706C213.458 284.333 208.147 280.882 205.549 275.71L203.092 276.628C200.53 276.757 199.112 280.036 199.916 282.472C200.72 284.908 202.93 286.572 205.078 287.974C210.78 291.693 216.937 294.715 223.368 296.951C227.545 298.404 231.886 299.532 236.307 299.623C240.729 299.714 245.262 298.705 248.898 296.187C253.134 293.254 255.836 288.502 257.267 283.553C258.525 279.203 258.898 274.661 259.158 270.132C249.07 267.293 240.114 265.956 240.114 265.956Z" fill="#D19A7C"/>
<path d="M231.412 360.618C231.412 361.353 230.965 361.949 230.413 361.949C229.861 361.949 229.414 361.353 229.414 360.618C229.414 359.883 229.861 359.287 230.413 359.287C230.965 359.287 231.412 359.883 231.412 360.618Z" stroke="#A0694D" stroke-width="0.3178" stroke-miterlimit="10" stroke-linecap="round" stroke-linejoin="round"/>
<path d="M277.173 221.46C277.173 221.46 281.186 221.578 283.8 219.981" stroke="#A0694D" stroke-width="0.3178" stroke-miterlimit="10" stroke-linecap="round" stroke-linejoin="round"/>
<path d="M183.652 221.46C183.652 221.46 179.639 221.578 177.025 219.981" stroke="#A0694D" stroke-width="0.3178" stroke-miterlimit="10" stroke-linecap="round" stroke-linejoin="round"/>
<path d="M230.413 123.86V162.051" stroke="#A0694D" stroke-width="0.3178" stroke-miterlimit="10" stroke-linecap="round" stroke-linejoin="round"/>
<path d="M274.598 311.733C278.549 300.165 265.779 284.631 264.43 271.453C264.053 271.506 263.659 271.485 263.24 271.341L263.244 271.345C260.481 270.472 257.73 269.713 255.134 269.058C254.773 270.662 253.688 275.803 253.688 279.751C253.688 286.977 243.358 288.805 230.413 288.805C217.468 288.805 207.138 286.977 207.138 279.751C207.138 275.804 206.053 270.662 205.692 269.058C203.095 269.713 200.344 270.472 197.582 271.345L197.586 271.341C197.166 271.485 196.773 271.506 196.396 271.453C195.047 284.631 182.277 300.165 186.229 311.733V311.734C188.989 319.396 191.977 328.385 194.483 337.76C206.736 335.969 235.981 332.817 266.365 337.691C268.865 328.341 271.845 319.376 274.598 311.733Z" fill="#6153C1"/>
<path d="M266.363 337.691C268.865 328.341 271.845 319.377 274.598 311.734V311.733C278.549 300.165 265.779 284.631 264.43 271.453C264.053 271.506 263.659 271.485 263.24 271.341L263.244 271.345C261.164 270.688 259.113 270.115 257.107 269.583C254.609 276.423 258.154 284.288 261.808 290.819C265.713 297.799 269.917 305.93 267.052 313.397C264.386 320.348 256.522 323.795 249.178 325.017C238.633 326.772 227.857 325.46 217.181 324.908C208.534 324.461 199.596 324.578 191.401 327.118C192.473 330.572 193.514 334.135 194.483 337.759C206.734 335.968 235.979 332.816 266.363 337.691Z" fill="#5548B7"/>
<path d="M347.545 394.961C346.425 388.521 339.675 384.922 333.989 383.643C317.497 380.315 293.258 381.282 278.241 382.517L278.242 382.516C269.01 383.114 266.161 381.041 264.822 379.187L261.527 373.753C260.561 372.16 260.541 370.426 260.647 369.168L260.772 368L261.183 364.169H199.641L200.178 369.17C200.283 370.428 200.263 372.161 199.298 373.753L196.968 377.595V377.596L196.003 379.188C194.665 381.041 191.819 383.112 182.602 382.518C167.571 381.281 143.292 380.313 126.797 383.653C121.119 384.939 114.398 388.537 113.281 394.961C112.384 400.121 113.261 407.141 119.975 412.798C125.896 417.051 134.722 421.626 147.784 426.166L147.785 426.164C192.878 442.153 230.089 434.805 230.418 434.74C230.747 434.806 267.958 442.153 313.051 426.164L313.052 426.166C326.074 421.64 334.886 417.079 340.807 412.837C347.563 407.174 348.444 400.132 347.545 394.961Z" fill="#AD45AA"/>
<path d="M347.545 394.961C346.425 388.521 339.675 384.922 333.989 383.643C323.828 381.593 310.73 381.176 298.657 381.444C302.714 382.831 307.174 383.404 311.422 384.217C318.149 385.505 325.47 388.175 328.38 394.376C331.776 401.613 327.258 410.541 320.567 414.917C313.876 419.293 305.625 420.328 297.728 421.576C278.745 424.576 260.064 429.46 242.029 436.101C256.502 437.109 283.02 436.813 313.051 426.165L313.052 426.167C326.074 421.641 334.886 417.08 340.807 412.838C347.563 407.174 348.444 400.132 347.545 394.961Z" fill="#A03FA0"/>
<path d="M266.37 380.699C265.677 380.218 265.189 379.695 264.823 379.187L261.528 373.753C260.562 372.16 260.542 370.426 260.648 369.168L260.773 368L261.184 364.169H238.739C236.76 366.521 233.735 370.465 235.887 377.106C236.734 379.719 237.68 382.309 238.251 384.996C238.823 387.683 238.674 390.74 236.893 392.832C234.568 395.563 230.244 395.67 226.953 394.244C223.662 392.818 221.059 390.211 218.237 387.998C211.878 383.012 204.062 379.94 196.025 379.152L196.003 379.188C195.637 379.696 195.149 380.218 194.457 380.699L194.458 380.702C201.759 383.405 211.895 392.632 215.05 399.794C223.901 399.072 234.695 398.521 246.297 398.657C249.452 391.495 259.068 383.404 266.369 380.702L266.37 380.699Z" fill="#A03FA0"/>
<path d="M155.398 404.495C157.489 404.664 169.358 404.02 185.212 412.964L192.114 402.471C185.358 400.756 185.868 397.137 181.811 393.047C177.754 388.957 165.558 395.073 155.235 396.118C144.912 397.162 140.659 398.071 141.271 400.837C141.912 403.737 148.093 403.799 153.813 404.415L153.814 404.413C154.235 404.447 154.727 404.453 155.398 404.495Z" fill="#E2AC86"/>
<path d="M177.899 409.368C180.222 410.355 182.658 411.524 185.212 412.964L192.114 402.471C185.358 400.756 185.868 397.137 181.811 393.047C177.755 388.957 165.558 395.073 155.235 396.118C147.257 396.925 142.919 397.655 141.635 399.22C144.149 400.031 146.881 399.762 149.514 399.475C155.346 398.838 161.178 398.202 167.009 397.565C170.128 397.225 173.399 396.904 176.303 398.092C179.207 399.28 181.531 402.516 180.58 405.505C180.102 407.008 178.93 408.15 177.899 409.368Z" fill="#D8A380"/>
<path d="M305.591 396.118C295.268 395.074 283.071 388.958 279.015 393.047C276.232 395.852 275.597 398.436 273.293 400.336C281.702 401.339 290.09 402.855 298.086 405.049C301.953 404.503 304.554 404.566 305.428 404.495C306.099 404.453 306.591 404.447 307.012 404.413L307.013 404.415C312.733 403.8 318.914 403.738 319.555 400.837C320.166 398.072 315.914 397.163 305.591 396.118Z" fill="#E2AC86"/>
<path d="M305.591 396.118C295.268 395.074 283.071 388.958 279.015 393.047C278.741 393.323 278.492 393.596 278.256 393.867C279.283 394.888 280.597 395.665 281.975 396.12C284.581 396.981 287.389 396.922 290.133 396.885C292.878 396.848 295.696 396.854 298.261 397.831C299.359 398.249 300.512 399.011 300.65 400.177C300.857 401.925 298.754 402.985 297.01 403.225C295.562 403.424 294.078 403.44 292.642 403.672C294.477 404.099 296.297 404.557 298.096 405.051C301.964 404.501 304.553 404.564 305.427 404.494C306.098 404.452 306.59 404.446 307.011 404.412L307.012 404.414C312.732 403.799 318.913 403.737 319.554 400.836C320.166 398.072 315.914 397.163 305.591 396.118Z" fill="#D8A380"/>
<path d="M192.114 402.472C192.114 402.472 256.013 391.587 302.974 406.49" stroke="#812D84" stroke-width="0.4312" stroke-miterlimit="10" stroke-linecap="round" stroke-linejoin="round"/>
<path d="M194.457 380.701C201.758 383.404 211.894 392.631 215.049 399.794" stroke="#812D84" stroke-width="0.4312" stroke-miterlimit="10" stroke-linecap="round" stroke-linejoin="round"/>
<path d="M230.402 434.737C203.145 429.386 185.212 412.964 185.212 412.964" stroke="#812D84" stroke-width="0.4312" stroke-miterlimit="10" stroke-linecap="round" stroke-linejoin="round"/>
<path d="M266.368 380.701C259.067 383.404 249.452 391.494 246.296 398.657" stroke="#812D84" stroke-width="0.4312" stroke-miterlimit="10" stroke-linecap="round" stroke-linejoin="round"/>
<path d="M192.114 402.472L185.212 412.964" stroke="#812D84" stroke-width="0.4312" stroke-miterlimit="10" stroke-linecap="round" stroke-linejoin="round"/>
<path d="M230.433 195.844C223.554 195.844 203.729 200.095 203.729 224.263H229.788H231.079H257.138C257.137 200.096 237.312 195.844 230.433 195.844Z" fill="#442A19"/>
<path d="M230.432 195.844C226.928 195.844 220.065 196.955 214.174 201.233C215.832 202.766 218.029 203.788 220.262 204.259C223.753 204.995 227.368 204.617 230.922 204.311C234.476 204.005 238.13 203.785 241.545 204.818C244.96 205.851 248.133 208.396 248.927 211.874C249.456 214.192 248.893 216.612 249.018 218.986C249.115 220.837 249.677 222.667 250.614 224.263H257.136C257.136 200.096 237.311 195.844 230.432 195.844Z" fill="#382216"/>
<path d="M235.605 182.553C233.633 182.553 231.789 183.088 230.196 184.008C230.105 184.013 230.018 184.015 229.934 184.013C228.339 183.09 226.493 182.553 224.518 182.553C218.531 182.553 213.677 187.407 213.677 193.394C213.677 199.381 218.531 204.235 224.518 204.235C226.546 204.235 228.438 203.668 230.061 202.698C231.685 203.668 233.576 204.235 235.605 204.235C241.592 204.235 246.445 199.382 246.445 193.394C246.445 187.407 241.592 182.553 235.605 182.553Z" fill="#382216"/>
<path d="M257.024 235.868C253.822 236.127 250.966 233.126 250.645 229.164C250.324 225.202 252.66 221.78 255.862 221.521C259.064 221.261 261.92 224.263 262.241 228.225C262.562 232.187 260.226 235.609 257.024 235.868Z" fill="#E2AC86"/>
<path opacity="0.7" d="M262.241 228.225C261.92 224.263 259.064 221.261 255.862 221.521C255.509 221.55 255.168 221.623 254.838 221.725C255.301 222.342 255.912 222.886 256.515 223.364C257.716 224.317 259.055 225.317 259.441 226.801C259.865 228.435 258.996 230.088 258.276 231.616C257.663 232.918 257.168 234.478 257.608 235.784C260.505 235.182 262.542 231.941 262.241 228.225Z" fill="#D19A7C"/>
<path d="M256.085 224.272C258.059 224.112 259.819 225.962 260.017 228.404C260.116 229.625 259.805 230.763 259.224 231.616" stroke="#B27A5B" stroke-width="0.3178" stroke-miterlimit="10" stroke-linecap="round" stroke-linejoin="round"/>
<path d="M203.801 235.868C207.003 236.127 209.859 233.126 210.18 229.164C210.501 225.202 208.165 221.78 204.963 221.521C201.761 221.261 198.905 224.263 198.584 228.225C198.263 232.187 200.599 235.609 203.801 235.868Z" fill="#E2AC86"/>
<path opacity="0.7" d="M210.18 229.164C210.501 225.202 208.165 221.78 204.963 221.521C203.863 221.432 202.807 221.735 201.878 222.322C203.193 224.18 203.854 226.51 203.59 228.775C203.427 230.171 202.948 231.51 202.675 232.889C202.5 233.774 202.42 234.707 202.555 235.591C202.952 235.736 203.368 235.833 203.801 235.868C207.003 236.127 209.859 233.126 210.18 229.164Z" fill="#D19A7C"/>
<path d="M204.74 224.272C202.766 224.112 201.006 225.962 200.808 228.404C200.709 229.625 201.019 230.763 201.601 231.616" stroke="#B27A5B" stroke-width="0.3178" stroke-miterlimit="10" stroke-linecap="round" stroke-linejoin="round"/>
<path d="M230.413 259.114C216.725 259.114 205.629 248.018 205.629 234.33V222.948C205.629 209.26 216.725 198.163 230.413 198.163C244.101 198.163 255.197 209.259 255.197 222.948V234.33C255.197 248.018 244.101 259.114 230.413 259.114Z" fill="#E2AC86"/>
<path opacity="0.7" d="M246.852 204.407C250.734 208.782 253.096 214.537 253.096 220.847V232.229C253.096 245.917 242 257.013 228.312 257.013C222.003 257.013 216.247 254.651 211.872 250.769C216.412 255.886 223.034 259.114 230.413 259.114C244.101 259.114 255.197 248.018 255.197 234.33V222.948C255.197 215.569 251.969 208.947 246.852 204.407Z" fill="#D19A7C"/>
<path d="M230.433 212.112C230.616 213.525 234.43 218.833 245.678 218.2" stroke="#442A19" stroke-width="0.6356" stroke-miterlimit="10" stroke-linecap="round" stroke-linejoin="round"/>
<path d="M230.433 212.112C230.331 212.902 229.755 214.909 224.588 216.653" stroke="#442A19" stroke-width="0.6356" stroke-miterlimit="10" stroke-linecap="round" stroke-linejoin="round"/>
<path d="M255.661 217.884L253.552 210.66L248.595 204.351L238.999 198.163L230.432 195.844L221.866 198.163L212.27 204.351L207.313 210.66L205.204 217.884L205.702 221.631L205.668 226.481C207.204 226.365 208.352 223.095 208.902 221.156L208.903 221.157C209.084 220.63 209.232 219.746 210.893 219.437C227.583 216.155 230.434 212.112 230.434 212.112C230.434 212.112 237.745 218.613 247.467 216.647C248.136 216.564 249.16 216.823 249.649 218.153V218.148C250.508 220.955 252.404 225.935 255.198 226.48L255.164 221.63L255.661 217.884Z" fill="#442A19"/>
<path d="M255.197 226.481L255.163 221.631L255.661 217.884L253.552 210.66L248.595 204.351L238.999 198.163L230.432 195.844L221.866 198.163L215.494 202.272C216.922 203.233 218.581 203.904 220.262 204.259C223.753 204.995 227.368 204.617 230.922 204.311C234.476 204.005 238.13 203.785 241.545 204.818C244.96 205.851 248.133 208.396 248.927 211.874C249.323 213.606 249.108 215.394 249.027 217.178C249.269 217.409 249.489 217.72 249.648 218.153V218.148C250.507 220.956 252.404 225.935 255.197 226.481Z" fill="#382216"/>
<path d="M216.765 226.481C217.374 227.193 218.648 227.688 220.135 227.688C221.622 227.688 222.896 227.193 223.505 226.481" stroke="#2D2D2D" stroke-width="0.445" stroke-miterlimit="10" stroke-linecap="round" stroke-linejoin="round"/>
<path d="M244.06 226.481C243.451 227.193 242.177 227.688 240.69 227.688C239.203 227.688 237.929 227.193 237.32 226.481" stroke="#2D2D2D" stroke-width="0.445" stroke-miterlimit="10" stroke-linecap="round" stroke-linejoin="round"/>
<path d="M237.32 222.463C237.848 221.894 238.488 221.457 239.213 221.154C239.936 220.845 240.766 220.718 241.585 220.795C243.247 220.982 244.628 222.008 245.407 223.317C243.96 222.766 242.736 222.17 241.452 222.059C240.177 221.889 238.85 222.23 237.32 222.463Z" fill="#442A19"/>
<path d="M223.505 222.463C221.975 222.23 220.648 221.889 219.373 222.058C218.089 222.17 216.864 222.766 215.418 223.316C216.198 222.007 217.578 220.981 219.24 220.794C220.06 220.717 220.889 220.844 221.612 221.153C222.338 221.457 222.977 221.894 223.505 222.463Z" fill="#442A19"/>
<path d="M230.639 230.911C230.367 233.765 235.041 236.878 230.367 238.656" stroke="#A0694D" stroke-width="0.3178" stroke-miterlimit="10" stroke-linecap="round" stroke-linejoin="round"/>
<path d="M231.411 246.522C232.124 246.238 232.873 246.171 233.545 246.067C234.22 245.959 234.832 245.84 235.28 245.549C235.811 245.232 236.282 244.833 236.685 244.346C237.093 243.867 237.442 243.164 238.046 242.677C237.908 243.414 237.877 244.113 237.542 244.857C237.222 245.605 236.624 246.212 235.944 246.644C235.159 247.102 234.297 247.156 233.557 247.065C232.802 246.98 232.126 246.77 231.411 246.522Z" fill="#C65C69"/>
<path d="M259.534 234.878C259.948 235.373 260.191 235.995 260.191 236.659C260.191 238.197 258.941 239.448 257.403 239.448C255.865 239.448 254.614 238.197 254.614 236.659C254.614 235.121 255.866 233.87 257.403 233.87C257.526 233.87 257.626 233.771 257.626 233.647C257.626 233.524 257.527 233.424 257.403 233.424C255.619 233.424 254.169 234.875 254.169 236.658C254.169 238.442 255.62 239.892 257.403 239.892C259.186 239.892 260.636 238.442 260.636 236.658C260.636 235.9 260.359 235.189 259.893 234.619C259.78 234.718 259.653 234.791 259.534 234.878Z" fill="#2D2D2D"/>
<path d="M205.968 238.395C205.456 239.032 204.681 239.448 203.802 239.448C202.264 239.448 201.013 238.197 201.013 236.659C201.013 235.121 202.264 233.87 203.802 233.87C203.925 233.87 204.025 233.771 204.025 233.647C204.025 233.524 203.925 233.424 203.802 233.424C202.018 233.424 200.568 234.875 200.568 236.658C200.568 238.442 202.018 239.892 203.802 239.892C204.69 239.892 205.495 239.532 206.08 238.951C206.045 238.765 205.999 238.583 205.968 238.395Z" fill="#2D2D2D"/>
</svg>
