<svg width="607" height="429" viewBox="0 0 607 429" fill="none" xmlns="http://www.w3.org/2000/svg">
<mask id="mask0_146_406" style="mask-type:luminance" maskUnits="userSpaceOnUse" x="58" y="0" width="491" height="355">
<path d="M548.286 0H58.041V354.457H548.286V0Z" fill="white"/>
</mask>
<g mask="url(#mask0_146_406)">
<path d="M426.43 443.891C494.51 375.811 494.51 265.43 426.43 197.349C358.349 129.269 247.969 129.269 179.888 197.35C111.807 265.43 111.807 375.811 179.888 443.891C247.969 511.972 358.349 511.972 426.43 443.891Z" stroke="#F4D4BF" stroke-width="2" stroke-linecap="round" stroke-linejoin="round" stroke-dasharray="4.01 8.02"/>
<path d="M467.104 484.565C557.648 394.021 557.648 247.22 467.103 156.676C376.559 66.1316 229.758 66.1316 139.214 156.676C48.67 247.22 48.67 394.021 139.214 484.565C229.758 575.109 376.559 575.109 467.104 484.565Z" stroke="#F4D4BF" stroke-width="2" stroke-linecap="round" stroke-linejoin="round" stroke-dasharray="4.01 8.03"/>
<path d="M437.985 455.446C512.447 380.984 512.447 260.257 437.985 185.795C363.522 111.333 242.796 111.333 168.333 185.795C93.8713 260.257 93.8713 380.984 168.333 455.446C242.796 529.908 363.522 529.908 437.985 455.446Z" stroke="#F4D4BF" stroke-width="2" stroke-linecap="round" stroke-linejoin="round" stroke-dasharray="3.99 7.99"/>
<path d="M420.305 437.767C485.004 373.069 485.004 268.172 420.305 203.474C355.607 138.775 250.71 138.775 186.012 203.474C121.314 268.172 121.314 373.069 186.012 437.767C250.71 502.465 355.607 502.465 420.305 437.767Z" fill="#F4D4BF"/>
</g>
<path d="M363.321 280.109C367.45 261.1 373.151 243.051 383.824 224.01C394.51 204.935 410.209 184.98 433.958 160.838C433.958 160.838 433.214 165.759 431.263 173.888C429.298 182.006 426.023 193.309 420.754 205.866C410.396 230.989 391.788 261.335 363.321 280.109Z" fill="#FDEBE2"/>
<path d="M355.116 291.93C363.274 277.057 359.826 257.122 353.51 239.433C347.166 221.656 338.076 206.056 335.556 198.328C335.556 198.328 329.432 216.464 328.323 237.082C327.388 257.686 331.26 281.336 355.116 291.93Z" fill="#FDEBE2"/>
<path d="M353.466 295.184C369.92 279.947 390.476 272.759 410.446 268.556C430.3 264.321 449.499 263.132 461.937 260.837C461.937 260.837 458.288 265.029 451.885 270.754C445.555 276.543 436.407 283.805 425.74 290.081C404.387 302.698 376.538 310.448 353.466 295.184Z" fill="#FDEBE2"/>
<path d="M328.704 327.671C342.386 310.014 336.186 286.582 326.434 268.379C316.627 250.043 303.436 236.488 303.436 236.488C303.436 236.488 302.379 240.61 301.479 247.204C300.531 253.768 299.661 262.771 300.06 272.596C300.888 292.146 306.323 315.232 328.704 327.671Z" fill="#FDEBE2"/>
<path d="M329.604 326.503C345.163 315.282 366.535 309.446 388.306 308.749C410.072 308.149 432.427 312.846 449.084 324.438C449.084 324.438 437.984 331.313 422.374 336.203C406.791 341.141 386.757 343.898 369.656 336.764C352.519 329.606 342.596 326.939 336.878 326.208C331.145 325.427 329.604 326.503 329.604 326.503Z" fill="#FDEBE2"/>
<path d="M310.16 344.25C310.253 344.811 310.301 345.35 310.324 345.872C310.603 345.905 310.88 345.944 311.159 345.975C311.653 345.988 312.146 346.011 312.64 346.026C316.661 335.591 314.703 321.863 307.472 309.613C298.54 294.304 281.623 281.364 259.495 278.023C259.495 278.023 261.102 286.684 265.826 297.035C270.601 307.384 278.546 319.595 291.984 326.082C305.025 332.326 309.262 339.022 310.16 344.25Z" fill="#FDEBE2"/>
<path d="M169.797 285.228C157.033 275.314 145.502 264.537 134.882 249.597C124.24 234.634 114.604 215.517 104.521 188.743C104.521 188.743 107.933 191.06 113.33 195.442C118.715 199.83 126.033 206.353 133.623 214.85C148.869 231.708 165.267 256.745 169.797 285.228Z" fill="#FDEBE2"/>
<path d="M175.869 295.714C167.514 284.181 151.552 279.746 136.309 278.308C120.992 276.86 106.384 278.288 99.8037 277.476C99.8037 277.476 111.259 288.609 126.22 296.778C141.228 304.809 160.093 310.238 175.869 295.714Z" fill="#FDEBE2"/>
<path d="M177.742 298.133C171.863 280.112 173.328 261.805 176.816 245.007C180.242 228.286 185.717 213.148 188.13 202.8C188.13 202.8 190.038 207.085 192.174 214.025C194.381 220.932 196.751 230.522 197.884 240.926C200.191 261.773 196.73 285.869 177.742 298.133Z" fill="#FDEBE2"/>
<path d="M193.693 328.646C185.098 311.891 165.625 308.324 148.862 309.336C131.983 310.343 117.537 315.641 117.537 315.641C117.537 315.641 120.252 317.914 124.855 320.945C129.421 324.002 135.826 327.865 143.262 331.048C158.071 337.354 177.034 341.385 193.693 328.646Z" fill="#FDEBE2"/>
<path d="M193.122 327.542C189.933 311.633 192.671 293.18 199.364 276.246C206.126 259.35 217.021 243.883 231.155 235.232C231.155 235.232 232.59 246.181 231.056 259.882C229.567 273.579 224.982 289.912 214.015 300.487C203.018 311.08 197.749 317.739 195.312 321.863C192.833 325.979 193.122 327.542 193.122 327.542Z" fill="#FDEBE2"/>
<path d="M204.34 349.801C199.311 339.427 202.341 324.776 211.005 312.555C219.736 300.374 234.225 290.598 252.879 291.799C252.879 291.799 251.056 299.726 246.096 308.392C241.165 317.073 233.203 326.331 221.547 329.557C210.28 332.718 206.023 337.841 204.539 342.084C203.08 346.326 204.34 349.801 204.34 349.801Z" fill="#FDEBE2"/>
<path fill-rule="evenodd" clip-rule="evenodd" d="M188.24 354.134C188.807 354.104 189.399 354.13 190.016 354.233C193.381 354.791 196.967 354.152 200.426 354.003C200.449 353.976 200.468 353.96 200.492 353.931C203.87 349.818 196.421 352.145 207.968 338.089C213.81 330.977 209.396 306.76 188.962 285.916C197.297 302.372 193.738 324.911 191.896 318.798C189.989 312.467 190.134 285.357 179.65 277.649C169.691 270.326 156.35 262.74 141.121 258.378C156.674 277.089 160.434 294.24 155.025 294.303C152.68 294.33 142.593 257.977 125.797 254.922C111.896 252.393 95.9528 251.907 77.8838 253.573C79.4208 268.376 80.3418 282.234 85.9318 292.963C99.1738 318.38 139.739 315.717 142.732 322.766C145.024 328.165 107.816 323.395 91.7398 309.78C99.1168 327.079 112.753 342.728 122.719 349.718C132.675 356.702 157.488 344.332 164.059 344.236C170.377 344.143 168.413 350.019 151.396 353.992C150.292 354.134 152.513 353.925 151.396 353.992C153.306 353.586 153.377 354.247 155.288 353.844C157.105 353.461 159.053 353.361 160.381 353.965C163.549 353.679 166.77 353.924 169.947 353.992C171.593 354.027 172.871 353.769 174.495 353.992C179.167 353.187 183.504 353.768 188.24 354.134Z" fill="#CCDBE4"/>
<path d="M97.335 272.213C97.335 272.213 137.441 295.18 192.816 353.389" stroke="#FDF3EE" stroke-width="1.046" stroke-miterlimit="10"/>
<path d="M130.923 279.942L138.759 302.529" stroke="#FDF3EE" stroke-width="1.046" stroke-miterlimit="10"/>
<path fill-rule="evenodd" clip-rule="evenodd" d="M519.226 301.454C525.121 290.273 526.155 275.801 527.836 260.344C508.967 258.511 492.31 258.937 477.774 261.508C460.212 264.613 449.488 302.54 447.038 302.5C441.388 302.406 445.403 284.509 461.748 265.04C445.816 269.52 431.84 277.376 421.398 284.976C410.406 292.976 410.419 321.299 408.394 327.903C406.439 334.28 402.836 310.716 411.628 293.566C390.173 315.237 385.438 340.515 391.505 347.974C403.497 362.718 413.123 346.476 416.631 350.79C417.621 352.007 417.969 352.421 416.706 354.079C418.394 353.686 419.03 354.158 420.567 354.105C422.491 354.039 424.931 353.344 426.514 353.889C427.543 353.846 428.22 353.701 429.249 353.655C429.642 353.607 430.811 353.639 431.18 353.655C438.877 353.307 445.395 353.889 453.103 353.948C454.409 353.958 455.71 353.992 457.012 354.025C467.607 353.381 478.164 352.84 488.771 353.669C497.611 345.184 507.198 332.592 513.074 318.996C496.209 333.137 457.313 337.93 459.735 332.302C462.897 324.95 505.262 327.939 519.226 301.454Z" fill="#CCDBE4"/>
<path d="M507.42 279.718C507.42 279.718 476.534 293.125 418.386 353.654" stroke="#FDF3EE" stroke-width="1.046" stroke-miterlimit="10"/>
<path d="M472.291 287.621L464.538 309.618" stroke="#FDF3EE" stroke-width="1.046" stroke-miterlimit="10"/>
<path fill-rule="evenodd" clip-rule="evenodd" d="M269.935 353.503C271.481 347.933 272.517 341.674 272.734 334.846C269.873 342.972 264.024 350.04 259.34 354.364C262.878 354.16 266.405 353.613 269.935 353.503Z" fill="#72D0DB"/>
<path fill-rule="evenodd" clip-rule="evenodd" d="M206.276 353.973C207.842 353.995 209.397 353.961 210.951 353.91C208.856 352.278 206.389 350.233 203.485 347.674C203.998 349.896 204.471 351.985 204.923 353.992C205.376 353.976 205.828 353.966 206.276 353.973Z" fill="#72D0DB"/>
<path d="M225.469 352.258C226.89 352.157 228.102 352.417 229.121 352.912C232.281 352.501 235.441 352.407 238.63 352.372C240.06 352.265 241.483 352.215 242.913 352.208C245.267 351.929 247.614 351.575 250.021 351.38C252.858 351.149 255.698 351.261 258.537 351.247C246.12 315.538 210.707 230.212 146.213 195.657C146.213 195.657 130.917 254.882 212.619 353.457C215.971 353.242 219.283 352.857 222.621 352.525C223.565 352.417 224.513 352.326 225.469 352.258Z" fill="#FFA8A1"/>
<path d="M158.324 222.546L235.197 351.86" stroke="#FDF3EE" stroke-width="1.046" stroke-miterlimit="10"/>
<path d="M195.133 284.464L197.932 255.167" stroke="#FDF3EE" stroke-width="1.046" stroke-miterlimit="10"/>
<path d="M202.36 319.8L219.935 326.186" stroke="#FDF3EE" stroke-width="1.046" stroke-miterlimit="10"/>
<path d="M336.61 347.721C341.37 348.447 346.423 349.114 351.163 349.93C352.918 350.232 354.414 350.191 356.327 350.714C358.047 350.578 359.236 351.665 360.757 351.842C361.021 351.873 361.267 351.919 361.521 351.959C451.57 253.982 438.176 192.29 438.176 192.29C346.427 241.363 340.525 296.117 322.861 345.4C326.239 346.044 329.612 346.719 333.009 347.257C334.178 347.443 335.796 347.181 336.61 347.721Z" fill="#FFA8A1"/>
<path d="M425.026 218.689L340.94 348.359" stroke="#FDF3EE" stroke-width="1.046" stroke-miterlimit="10"/>
<path d="M385.836 279.126L384.221 250.474" stroke="#FDF3EE" stroke-width="1.046" stroke-miterlimit="10"/>
<path d="M377.238 314.153L359.428 319.85" stroke="#FDF3EE" stroke-width="1.046" stroke-miterlimit="10"/>
<path d="M98.9892 354.236C98.9892 354.236 50.7682 320.992 56.6672 254.034" stroke="#EDC2AF" stroke-width="2.0622" stroke-miterlimit="10"/>
<path d="M66.4201 249.295C66.7811 254.284 63.0291 258.621 58.0391 258.982C53.0501 259.343 48.7131 255.591 48.3521 250.601C47.9911 245.612 51.7431 241.275 56.7331 240.914C61.7221 240.554 66.0591 244.306 66.4201 249.295Z" fill="#CCDBE4"/>
<path d="M63.6667 237.291C63.8737 240.151 61.7227 242.637 58.8627 242.844C56.0027 243.051 53.5167 240.9 53.3097 238.04C53.1027 235.18 55.2537 232.694 58.1137 232.487C60.9737 232.28 63.4597 234.431 63.6667 237.291Z" fill="#CCDBE4"/>
<path d="M97.8307 353.041C97.8797 353.064 47.6406 358.243 26.5566 309.238" stroke="#EDC2AF" stroke-width="2.0622" stroke-miterlimit="10"/>
<path d="M31.5883 302.261C33.7163 305.611 32.7263 310.051 29.3763 312.179C26.0263 314.307 21.5863 313.317 19.4583 309.967C17.3303 306.617 18.3203 302.177 21.6703 300.049C25.0203 297.921 29.4603 298.911 31.5883 302.261Z" fill="#CCDBE4"/>
<path d="M25.1515 294.91C26.3715 296.83 25.8035 299.376 23.8835 300.596C21.9635 301.816 19.4175 301.248 18.1975 299.328C16.9775 297.408 17.5455 294.862 19.4655 293.642C21.3865 292.422 23.9325 292.99 25.1515 294.91Z" fill="#CCDBE4"/>
<path d="M504.588 354.236C504.588 354.236 552.805 320.992 546.907 254.034" stroke="#EDC2AF" stroke-width="2.0622" stroke-miterlimit="10"/>
<path d="M537.154 249.295C536.793 254.284 540.545 258.621 545.535 258.982C550.524 259.343 554.861 255.591 555.222 250.601C555.583 245.612 551.83 241.275 546.841 240.914C541.852 240.554 537.515 244.306 537.154 249.295Z" fill="#CCDBE4"/>
<path d="M539.906 237.291C539.699 240.151 541.85 242.637 544.71 242.844C547.57 243.051 550.056 240.9 550.263 238.04C550.47 235.18 548.319 232.694 545.459 232.487C542.599 232.28 540.113 234.431 539.906 237.291Z" fill="#CCDBE4"/>
<path d="M505.744 353.041C505.695 353.064 555.934 358.243 577.018 309.238" stroke="#EDC2AF" stroke-width="2.0622" stroke-miterlimit="10"/>
<path d="M571.987 302.261C569.859 305.611 570.849 310.051 574.199 312.179C577.549 314.307 581.989 313.317 584.117 309.967C586.245 306.617 585.255 302.177 581.905 300.049C578.555 297.921 574.115 298.911 571.987 302.261Z" fill="#CCDBE4"/>
<path d="M578.424 294.91C577.204 296.83 577.772 299.376 579.692 300.596C581.612 301.816 584.158 301.248 585.378 299.328C586.598 297.408 586.03 294.862 584.11 293.642C582.189 292.422 579.644 292.99 578.424 294.91Z" fill="#CCDBE4"/>
<path d="M0 354.236H606.328" stroke="#EDC2AF" stroke-width="1.9057" stroke-miterlimit="10"/>
<path d="M170.057 361.587L90.7833 413.092C84.0383 417.474 87.1413 427.947 95.1853 427.947H511.586C519.592 427.947 522.723 417.554 516.049 413.132L438.256 361.588H170.057V361.587Z" stroke="#EDC2AF" stroke-width="1.9057" stroke-miterlimit="10"/>
<path d="M98.9902 418.172H505.744" stroke="#EDC2AF" stroke-width="1.9057" stroke-miterlimit="10"/>
<path d="M263.147 207.749C263.147 207.749 266.619 215.85 277.96 213.998C289.301 212.146 288.607 212.146 293.931 214.229C299.254 216.312 305.272 215.618 312.448 211.683C319.624 207.748 324.715 218.395 333.974 210.063C343.232 201.73 332.122 191.546 329.808 178.816C327.493 166.086 319.021 147.268 301.339 148.726C278.887 150.578 269.105 165.034 270.494 180.542C271.882 196.051 260.138 197.796 263.147 207.749Z" fill="#1B203C"/>
<path d="M292.036 185.706C292.036 185.706 295.034 214.051 290.229 218.282C285.425 222.513 246.95 221.034 241.779 229.185C236.608 237.336 245.386 331.989 245.386 331.989L349.993 339.203C349.993 339.203 375.164 235.824 351.501 223.173C346.884 220.705 311.375 223.655 310.334 211.696C309.835 205.972 312.309 176.666 312.309 176.666L292.036 185.706Z" fill="#ED8795"/>
<path d="M310.336 203.342C310.336 203.342 301.562 212.566 292.951 204.356L293.613 209.126C293.613 209.126 294.769 213.829 300.467 214.202C306.165 214.575 310.337 209.032 310.337 209.032V203.342H310.336Z" fill="#C44062"/>
<path d="M287.886 163.512C287.886 163.512 293.237 152.542 306.929 157.963C320.622 163.383 332.419 180.383 320.942 189.201L290.005 187.948L284.813 191.663C284.813 191.663 275.051 183.772 278.374 173.814C281.696 163.854 287.886 163.512 287.886 163.512Z" fill="#1B203C"/>
<path d="M285.109 169.825C285.109 169.825 281.333 207.438 300.751 207.428C314.109 207.421 320.209 184.57 316.356 174.093C312.504 163.617 292.814 161.289 285.109 169.825Z" fill="#ED8795"/>
<path d="M307.905 186.701C307.905 187.538 308.435 188.217 309.088 188.217C309.742 188.217 310.271 187.538 310.271 186.701C310.271 185.864 309.741 185.185 309.088 185.185C308.435 185.185 307.905 185.864 307.905 186.701Z" fill="#2F1933"/>
<path d="M292.312 186.636C292.312 187.473 292.843 188.152 293.496 188.152C294.15 188.152 294.679 187.474 294.679 186.636C294.679 185.799 294.149 185.121 293.496 185.121C292.843 185.12 292.312 185.799 292.312 186.636Z" fill="#2F1933"/>
<path d="M314.758 188.187C314.758 188.187 316.94 181.762 319.809 184.551C322.678 187.34 319.52 195.055 316.773 195.027C314.025 194.998 313.469 190.81 314.758 188.187Z" fill="#ED8795"/>
<path d="M286.369 187.934C286.369 187.934 285.441 182.112 282.586 184.915C279.731 187.718 283.758 195.068 286.506 195.026C289.253 194.984 287.672 190.551 286.369 187.934Z" fill="#ED8795"/>
<path d="M293.901 179.146C293.901 179.146 291.249 177.895 289.138 180.913C287.905 182.675 296.891 180.384 293.901 179.146Z" fill="#1B203C"/>
<path d="M306.517 179.85C306.517 179.85 309.161 178.582 311.292 181.586C312.536 183.34 303.536 181.107 306.517 179.85Z" fill="#1B203C"/>
<path d="M304.816 194.581C304.816 194.581 303.927 199.602 301.179 199.166C298.43 198.73 297.512 195.139 297.512 195.139C297.512 195.139 304.313 193.949 304.816 194.581Z" fill="white"/>
<path d="M284.869 193.101L283.978 192.964C284.554 189.22 283.885 187.814 283.434 187.31C283.038 186.866 282.615 186.88 282.615 186.88L282.55 185.982C282.64 185.97 283.39 185.938 284.072 186.669C285.089 187.762 285.357 189.927 284.869 193.101Z" fill="#2F1933"/>
<path d="M315.953 192.431C315.789 189.779 316.228 187.89 317.258 186.821C318.079 185.969 318.996 185.986 319.023 185.979L319.002 186.881L319.013 186.43L319.008 186.881C318.985 186.881 318.429 186.89 317.884 187.471C317.313 188.082 316.672 189.428 316.855 192.374L315.953 192.431Z" fill="#2F1933"/>
<path d="M300 192.743L299.926 191.845C300.313 191.813 300.995 191.709 301.351 191.556C301.416 190.936 300.896 188.474 300.342 186.413L301.212 186.177C302.723 191.794 302.202 192.106 301.922 192.275C301.342 192.623 300.136 192.732 300 192.743Z" fill="#2F1933"/>
<path d="M342.783 390.604C342.783 390.604 349.396 379.783 362.622 379.783C375.848 379.783 381.86 382.789 389.074 385.194C396.288 387.599 409.515 405.033 404.705 407.438C399.895 409.843 380.657 397.819 372.241 397.819C363.825 397.819 340.379 390.604 342.783 390.604Z" fill="#ED8795"/>
<path d="M248.216 378.551C248.216 378.551 251.002 387.128 247.725 392.996C244.448 398.864 235.39 390.049 226.23 394.542C217.07 399.034 201.491 419.626 197.155 406.278C194.369 397.701 208.491 377.867 224.269 378.178C241.793 378.524 247.287 375.692 248.216 378.551Z" fill="#ED8795"/>
<path d="M236.373 374.372C236.373 374.372 340.11 294.113 387.495 308.542C434.88 322.971 434.88 362.649 428.111 366.256C421.342 369.863 247.597 411.345 238.571 405.935C229.545 400.524 236.373 374.372 236.373 374.372Z" fill="#397879"/>
<path d="M370.212 382.489C370.212 382.489 266.416 294.114 219.031 308.543C171.646 322.972 171.646 362.65 178.415 366.257C185.184 369.864 358.929 411.346 367.955 405.936C376.981 400.524 370.212 382.489 370.212 382.489Z" fill="#397879"/>
<path d="M279.975 220.424C279.975 220.424 276.524 253.454 301.173 258.876C325.822 264.299 323.85 219.931 331.738 219.931C339.626 219.931 344.143 216.788 347.593 224.675C351.044 232.563 348.006 259.862 360.33 261.834C372.654 263.806 363.288 289.934 356.386 294.864C349.484 299.794 245.465 305.71 241.521 295.357C237.577 285.004 236.591 272.187 243 267.75C249.409 263.313 258.775 269.722 261.24 255.425C263.705 241.129 254.527 228.787 261.922 222.871C269.319 216.956 276.525 217.467 279.975 220.424Z" fill="#F4D4BF"/>
<path d="M260.42 223.173C260.42 223.173 246.169 223.875 239.76 229.298C233.351 234.721 216.59 304.231 225.957 306.696C235.324 309.161 255.536 316.556 257.015 308.668C258.494 300.78 270.234 223.457 260.42 223.173Z" fill="#ED8795"/>
<path d="M256.814 311.848C256.814 311.848 246.169 316.063 224.971 319.02C203.773 321.978 172.362 316.035 160.038 322.444C147.713 328.853 160.391 313.598 167.293 313.598C174.195 313.598 150.19 323.784 152.043 319.969C155.279 313.306 170.744 310.147 170.744 310.147C170.744 310.147 148.439 318.302 155.089 312.164C157.564 309.879 163.227 306.184 170.129 305.691C177.031 305.198 163.398 302.669 165.37 299.218C167.342 295.767 171.731 304.231 181.098 300.78C190.462 297.329 268.153 271.917 256.814 311.848Z" fill="#ED8795"/>
<path d="M351.503 223.173C351.503 223.173 365.754 223.875 372.163 229.298C378.572 234.721 395.333 304.231 385.966 306.696C376.599 309.161 356.387 316.556 354.908 308.668C353.43 300.78 341.689 223.457 351.503 223.173Z" fill="#ED8795"/>
<path d="M351.801 310.646C351.801 310.646 365.753 316.063 386.951 319.021C408.149 321.979 439.56 316.036 451.884 322.445C464.209 328.854 451.531 313.599 444.629 313.599C437.727 313.599 461.732 323.785 459.879 319.97C456.643 313.307 441.178 310.148 441.178 310.148C441.178 310.148 463.483 318.303 456.833 312.165C454.358 309.88 448.695 306.185 441.793 305.692C434.891 305.199 448.524 302.67 446.552 299.219C444.58 295.768 440.191 304.232 430.824 300.781C421.46 297.329 340.463 270.714 351.801 310.646Z" fill="#ED8795"/>
<path d="M309.715 154.332C314.28 149.767 314.28 142.366 309.715 137.801C305.15 133.236 297.749 133.236 293.184 137.801C288.619 142.366 288.619 149.767 293.184 154.332C297.749 158.896 305.15 158.896 309.715 154.332Z" fill="#1B203C"/>
<path d="M284.904 184.14C284.904 184.14 286.293 180.437 291.153 175.576C296.014 170.715 298.791 167.706 299.948 165.16C301.105 162.614 311.29 183.908 317.307 183.908C317.307 183.908 323.093 169.558 309.9 162.845C296.707 156.133 292.256 160.241 287.885 163.511C283.516 166.781 281.664 185.76 284.904 184.14Z" fill="#1B203C"/>
<path d="M348.495 223.323C348.495 223.323 360.669 230.086 366.531 235.046C372.393 240.006 372.393 272.019 385.919 274.724C385.919 274.724 382.312 230.987 373.294 226.479C364.276 221.97 344.437 220.618 348.495 223.323Z" fill="#F1A4A4"/>
<path d="M260.42 223.173C260.42 223.173 254.259 235.497 249.299 238.653C244.339 241.809 228.107 259.845 229.46 255.336C230.813 250.827 233.518 230.988 240.732 227.381C247.947 223.774 256.662 223.023 260.42 223.173Z" fill="#F1A4A4"/>
<path d="M310.336 211.696C310.336 211.696 311.372 216.86 314.528 220.467C317.684 224.074 326.852 223.323 328.656 221.97C330.46 220.618 316.363 219.007 310.336 211.696Z" fill="#F1A4A4"/>
<path d="M386.822 286.448C386.822 286.448 379.157 294.564 395.84 300.426C412.523 306.288 435.519 306.739 432.362 300.877C429.206 295.015 384.567 285.095 386.822 286.448Z" fill="#F1A4A4"/>
<path d="M356.05 309.363C356.05 309.363 250.481 306.193 254.088 312.89C257.695 319.587 288.075 333.313 300.249 333.791C312.423 334.269 353.795 315.103 356.05 309.363Z" fill="#2E6263"/>
<path d="M305.661 395.113C305.661 395.113 366.532 377.979 366.081 381.586C365.63 385.193 348.045 402.327 336.773 401.876C325.5 401.426 301.603 397.819 305.661 395.113Z" fill="#2E6263"/>
<path d="M236.975 406.235C236.975 406.235 224.951 375.574 236.374 361.146C246.055 348.918 315.28 327.178 325.951 325.075C325.951 325.075 287.475 341.307 276.653 346.718C265.832 352.129 239.379 367.76 239.379 372.569C239.38 377.378 237.576 412.848 236.975 406.235Z" fill="#2E6263"/>
<path d="M260.121 286.448C260.121 286.448 260.121 308.542 255.161 312.149C250.201 315.756 209.17 323.421 198.348 319.814C198.348 319.814 235.772 310.796 244.79 306.287C253.808 301.778 257.866 288.702 260.121 286.448Z" fill="#E96785"/>
<path d="M350.6 280.186C350.6 280.186 349.317 305.516 354.448 311.288C359.578 317.059 390.68 321.548 396.131 319.624C396.131 319.624 365.991 311.929 362.144 305.516C358.295 299.103 350.6 280.186 350.6 280.186Z" fill="#E96785"/>
<path d="M270.103 204.732L269.525 204.038C269.578 203.994 274.786 199.592 274.999 194.671C275.059 193.285 275.071 191.966 275.082 190.734C275.114 187.273 275.138 184.539 276.202 182.942L276.952 183.442C276.036 184.816 276.013 187.431 275.983 190.743C275.972 191.983 275.96 193.313 275.9 194.709C275.668 200.033 270.33 204.542 270.103 204.732Z" fill="#F4D4BF"/>
<path d="M281.579 207.755L281.044 207.029L281.312 207.392L281.037 207.034C281.062 207.015 283.586 204.834 281.025 194.879L281.899 194.654C284.647 205.347 281.706 207.661 281.579 207.755Z" fill="#F4D4BF"/>
<path d="M319.075 206.242C315.773 202.466 317.712 197.705 317.796 197.504L318.627 197.853C318.609 197.897 316.827 202.302 319.754 205.647L319.075 206.242Z" fill="#F4D4BF"/>
<path d="M332.999 206.007L332.171 205.651C332.909 203.927 330.836 201.838 328.83 199.818C327.558 198.539 326.359 197.331 325.723 196.119C324.011 192.85 325.327 187.179 325.383 186.939L326.26 187.147C326.248 187.202 324.967 192.732 326.523 195.7C327.094 196.792 328.302 198.007 329.47 199.184C331.687 201.416 333.978 203.723 332.999 206.007Z" fill="#F4D4BF"/>
<path d="M282.514 177.973L281.616 177.892C281.648 177.545 282.465 169.35 289.2 165.371L290.179 164.793C295.972 161.383 297.529 160.466 297.395 156.455L298.297 156.427C298.448 160.971 296.479 162.13 290.637 165.57L289.658 166.146C283.317 169.894 282.521 177.893 282.514 177.973Z" fill="#F4D4BF"/>
<path d="M276.318 170.288L275.483 169.946C275.596 169.669 278.308 163.144 282.924 160.992C284.837 160.099 286.963 158.688 289.016 157.325C291.845 155.449 294.288 153.829 295.862 153.736L295.915 154.638C294.583 154.715 292.121 156.348 289.514 158.078C287.432 159.461 285.278 160.889 283.304 161.81C279.006 163.814 276.345 170.223 276.318 170.288Z" fill="#F4D4BF"/>
<path d="M316.346 177.441C315.479 173.976 312.21 170.454 309.584 167.625C308.152 166.082 306.916 164.751 306.181 163.595C304.036 160.227 303.863 156.756 303.856 156.61L304.758 156.571C304.76 156.605 304.932 159.954 306.942 163.113C307.632 164.198 308.842 165.501 310.244 167.011C312.941 169.917 316.298 173.533 317.219 177.223L316.346 177.441Z" fill="#F4D4BF"/>
<path d="M319.642 172.428C319.209 168.958 316.836 165.901 314.543 162.943C313.754 161.925 313.007 160.963 312.352 160C309.89 156.381 305.34 153.855 305.295 153.829L305.728 153.04C305.922 153.146 310.512 155.691 313.099 159.493C313.737 160.434 314.475 161.383 315.255 162.39C317.515 165.301 320.074 168.6 320.537 172.315L319.642 172.428Z" fill="#F4D4BF"/>
<path d="M290.535 152.459C290.417 152.382 287.634 150.529 287.435 147.304C287.28 144.771 288.763 142.166 291.844 139.563L292.425 140.253C289.573 142.661 288.198 145.016 288.335 147.249C288.506 150.027 291.003 151.688 291.028 151.705L290.535 152.459Z" fill="#1B203C"/>
<path d="M312.167 153.126L311.48 152.541C313.956 149.628 314.948 147 314.427 144.733C313.756 141.823 310.771 140.483 310.741 140.469L311.104 139.645C311.243 139.705 314.535 141.184 315.305 144.531C315.894 147.092 314.839 149.982 312.167 153.126Z" fill="#1B203C"/>
<path d="M271.139 190.459C270.611 189.4 266.31 173.228 271.75 163.437C277.073 153.856 286.017 153.438 286.106 153.435L286.138 154.337C286.054 154.34 277.605 154.756 272.539 163.874C267.345 173.223 271.495 189.154 271.945 190.057L271.139 190.459Z" fill="#1B203C"/>
<path d="M331.053 184.93L330.165 184.764C333.809 165.097 321.137 160.969 321.008 160.93L321.272 160.067C321.409 160.11 334.84 164.481 331.053 184.93Z" fill="#1B203C"/>
<path d="M298.101 149.632C293.138 147.233 295.655 139.635 295.766 139.312L296.618 139.601C296.595 139.673 294.247 146.766 298.492 148.821L298.101 149.632Z" fill="#F4D4BF"/>
<path d="M301.754 149.193C301.49 149.193 301.321 149.177 301.294 149.175L301.382 148.277C301.407 148.286 303.843 148.492 305.06 147.021C305.893 146.014 306 144.421 305.377 142.288L306.244 142.034C306.956 144.475 306.79 146.347 305.751 147.6C304.574 149.019 302.637 149.193 301.754 149.193Z" fill="#F4D4BF"/>
</svg>
