<svg width="48" height="48" viewBox="0 0 48 48" fill="none" xmlns="http://www.w3.org/2000/svg">
<path d="M38.88 26C38.44 26 37.98 25.86 37.54 25.76C36.649 25.5636 35.7734 25.3029 34.92 24.98C33.9922 24.6424 32.9723 24.66 32.0566 25.0292C31.141 25.3984 30.3942 26.0933 29.96 26.98L29.52 27.88C27.572 26.7963 25.782 25.4504 24.2 23.88C22.6296 22.298 21.2837 20.508 20.2 18.56L21.04 18C21.9268 17.5658 22.6216 16.819 22.9908 15.9034C23.36 14.9877 23.3776 13.9678 23.04 13.04C22.7225 12.1848 22.4619 11.3096 22.26 10.42C22.16 9.97998 22.08 9.51998 22.02 9.05998C21.7771 7.65122 21.0393 6.37546 19.9393 5.46246C18.8393 4.54945 17.4494 4.0592 16.02 4.07998H10.02C9.15808 4.07189 8.30452 4.24961 7.51744 4.60104C6.73036 4.95248 6.02824 5.46937 5.45888 6.11654C4.88952 6.76372 4.46629 7.52597 4.21799 8.35141C3.9697 9.17685 3.90218 10.0461 4.02002 10.9C5.08549 19.2787 8.91208 27.0637 14.8953 33.0253C20.8786 38.9868 28.6774 42.785 37.06 43.82H37.82C39.2948 43.8221 40.7188 43.281 41.82 42.3C42.4527 41.7341 42.9582 41.0403 43.303 40.2646C43.6477 39.4889 43.824 38.6489 43.82 37.8V31.8C43.7955 30.4107 43.2896 29.0731 42.3887 28.0153C41.4878 26.9575 40.2477 26.2452 38.88 26ZM39.88 38C39.8797 38.284 39.8188 38.5646 39.7016 38.8232C39.5843 39.0819 39.4134 39.3126 39.2 39.5C38.9765 39.6929 38.7152 39.8371 38.4328 39.9232C38.1504 40.0093 37.8531 40.0354 37.56 40C30.0698 39.0396 23.1125 35.613 17.7855 30.2606C12.4584 24.9082 9.06484 17.9347 8.14002 10.44C8.10819 10.147 8.13608 9.85064 8.22202 9.56876C8.30796 9.28688 8.45016 9.02536 8.64002 8.79998C8.82744 8.58664 9.05814 8.41566 9.31678 8.29841C9.57541 8.18117 9.85605 8.12034 10.14 8.11998H16.14C16.6051 8.10963 17.0593 8.26174 17.4243 8.55012C17.7893 8.8385 18.0424 9.24512 18.14 9.69998C18.22 10.2466 18.32 10.7866 18.44 11.32C18.6711 12.3743 18.9785 13.4103 19.36 14.42L16.56 15.72C16.3206 15.8298 16.1053 15.9859 15.9263 16.1792C15.7474 16.3725 15.6084 16.5992 15.5174 16.8464C15.4263 17.0935 15.385 17.3562 15.3957 17.6194C15.4065 17.8826 15.4691 18.1411 15.58 18.38C18.4584 24.5455 23.4145 29.5016 29.58 32.38C30.0669 32.58 30.6131 32.58 31.1 32.38C31.3494 32.2908 31.5787 32.1529 31.7744 31.9744C31.9701 31.7958 32.1283 31.5802 32.24 31.34L33.48 28.54C34.514 28.9097 35.5692 29.217 36.64 29.46C37.1734 29.58 37.7134 29.68 38.26 29.76C38.7149 29.8576 39.1215 30.1107 39.4099 30.4757C39.6983 30.8407 39.8504 31.2949 39.84 31.76L39.88 38Z" fill="#FFEB80"/>
</svg>
