<svg width="112" height="102" viewBox="0 0 112 102" fill="none" xmlns="http://www.w3.org/2000/svg">
<rect width="112" height="102" rx="20" fill="#FFAE42" fill-opacity="0.25"/>
<g clip-path="url(#clip0_11_145)">
<path d="M68.0313 49.9062H59.0798C58.9166 49.4487 58.6538 49.0332 58.3103 48.6897C57.9669 48.3462 57.5513 48.0834 57.0938 47.9202V34.5937C57.0938 34.3037 56.9785 34.0255 56.7734 33.8203C56.5683 33.6152 56.2901 33.5 56 33.5C55.7099 33.5 55.4317 33.6152 55.2266 33.8203C55.0215 34.0255 54.9063 34.3037 54.9063 34.5937V47.9202C54.3842 48.1038 53.9172 48.4167 53.5489 48.8298C53.1806 49.2428 52.923 49.7425 52.8003 50.2821C52.6776 50.8217 52.6936 51.3837 52.847 51.9154C53.0004 52.4471 53.2862 52.9312 53.6775 53.3225C54.0688 53.7139 54.5529 53.9996 55.0846 54.153C55.6163 54.3064 56.1783 54.3224 56.7179 54.1997C57.2575 54.077 57.7572 53.8194 58.1703 53.4511C58.5833 53.0828 58.8962 52.6158 59.0798 52.0937H68.0313C68.3213 52.0937 68.5995 51.9785 68.8047 51.7734C69.0098 51.5683 69.125 51.2901 69.125 51C69.125 50.7099 69.0098 50.4317 68.8047 50.2266C68.5995 50.0215 68.3213 49.9062 68.0313 49.9062ZM56 52.0937C55.7837 52.0937 55.5722 52.0296 55.3924 51.9094C55.2125 51.7892 55.0723 51.6184 54.9895 51.4186C54.9067 51.2187 54.8851 50.9988 54.9273 50.7866C54.9695 50.5744 55.0737 50.3796 55.2266 50.2266C55.3796 50.0736 55.5745 49.9695 55.7866 49.9273C55.9988 49.8851 56.2187 49.9067 56.4186 49.9895C56.6184 50.0723 56.7892 50.2125 56.9094 50.3923C57.0296 50.5722 57.0938 50.7837 57.0938 51C57.0936 51.29 56.9783 51.5681 56.7732 51.7732C56.5681 51.9783 56.29 52.0935 56 52.0937ZM76.156 30.9635C76.1369 30.9411 76.1296 30.9129 76.1083 30.8916C76.0871 30.8704 76.0589 30.8631 76.0365 30.844C70.7169 25.5406 63.5116 22.5625 56 22.5625C48.4884 22.5625 41.2831 25.5406 35.9635 30.844C35.9411 30.8631 35.9129 30.8704 35.8917 30.8916C35.8704 30.9129 35.8631 30.941 35.844 30.9635C30.5406 36.2831 27.5625 43.4883 27.5625 51C27.5625 58.5116 30.5406 65.7169 35.844 71.0365C35.8631 71.0589 35.8704 71.0871 35.8917 71.1083C35.9129 71.1296 35.9411 71.1369 35.9635 71.156C41.2831 76.4594 48.4884 79.4375 56 79.4375C63.5116 79.4375 70.7169 76.4594 76.0365 71.156C76.0589 71.1369 76.0871 71.1296 76.1083 71.1083C76.1296 71.0871 76.1369 71.0589 76.156 71.0365C81.4594 65.7169 84.4375 58.5116 84.4375 51C84.4375 43.4883 81.4594 36.2831 76.156 30.9635ZM75.2892 68.7426L73.0151 66.4684C72.8093 66.2668 72.5322 66.1545 72.2441 66.1559C71.956 66.1574 71.68 66.2725 71.4763 66.4762C71.2726 66.68 71.1574 66.9559 71.156 67.244C71.1545 67.5321 71.2668 67.8092 71.4685 68.015L73.7427 70.2892C69.1886 74.4942 63.2871 76.942 57.0938 77.1946V73.9687C57.0938 73.6787 56.9785 73.4005 56.7734 73.1953C56.5683 72.9902 56.2901 72.875 56 72.875C55.7099 72.875 55.4317 72.9902 55.2266 73.1953C55.0215 73.4005 54.9063 73.6787 54.9063 73.9687V77.1946C48.7129 76.942 42.8114 74.4942 38.2574 70.2892L40.5316 68.0151C40.7332 67.8093 40.8456 67.5322 40.8441 67.2441C40.8426 66.9559 40.7275 66.68 40.5238 66.4763C40.3201 66.2725 40.0441 66.1574 39.756 66.156C39.4679 66.1545 39.1908 66.2668 38.985 66.4685L36.7108 68.7426C32.5058 64.1886 30.058 58.2871 29.8054 52.0937H33.0313C33.3213 52.0937 33.5995 51.9785 33.8047 51.7734C34.0098 51.5683 34.125 51.2901 34.125 51C34.125 50.7099 34.0098 50.4317 33.8047 50.2266C33.5995 50.0215 33.3213 49.9062 33.0313 49.9062H29.8054C30.058 43.7129 32.5058 37.8114 36.7108 33.2574L38.9849 35.5316C39.1907 35.7332 39.4678 35.8455 39.7559 35.8441C40.0441 35.8426 40.32 35.7275 40.5237 35.5238C40.7275 35.32 40.8426 35.0441 40.844 34.756C40.8455 34.4678 40.7332 34.1908 40.5315 33.985L38.2574 31.7108C42.8114 27.5058 48.7129 25.058 54.9063 24.8054V28.0312C54.9063 28.3213 55.0215 28.5995 55.2266 28.8046C55.4317 29.0098 55.7099 29.125 56 29.125C56.2901 29.125 56.5683 29.0098 56.7734 28.8046C56.9785 28.5995 57.0938 28.3213 57.0938 28.0312V24.8054C63.2871 25.058 69.1886 27.5058 73.7426 31.7108L71.4685 33.9849C71.3652 34.0861 71.2831 34.2067 71.2267 34.3399C71.1704 34.473 71.141 34.6159 71.1403 34.7605C71.1396 34.905 71.1675 35.0483 71.2225 35.182C71.2775 35.3157 71.3584 35.4371 71.4606 35.5393C71.5628 35.6415 71.6843 35.7225 71.818 35.7775C71.9516 35.8324 72.0949 35.8604 72.2395 35.8596C72.384 35.8589 72.527 35.8295 72.6601 35.7732C72.7932 35.7169 72.9138 35.6347 73.015 35.5315L75.2892 33.2574C79.4943 37.8114 81.942 43.7129 82.1946 49.9062H78.9688C78.6787 49.9062 78.4005 50.0215 78.1954 50.2266C77.9902 50.4317 77.875 50.7099 77.875 51C77.875 51.2901 77.9902 51.5683 78.1954 51.7734C78.4005 51.9785 78.6787 52.0937 78.9688 52.0937H82.1946C81.942 58.2871 79.4943 64.1886 75.2892 68.7426ZM56 16C49.0777 16 42.3108 18.0527 36.5551 21.8986C30.7993 25.7444 26.3133 31.2107 23.6642 37.6061C21.0152 44.0015 20.322 51.0388 21.6725 57.8282C23.023 64.6175 26.3564 70.8539 31.2513 75.7487C36.1461 80.6436 42.3825 83.977 49.1719 85.3275C55.9612 86.678 62.9985 85.9848 69.3939 83.3358C75.7893 80.6867 81.2556 76.2007 85.1014 70.445C88.9473 64.6892 91 57.9223 91 51C90.9894 41.7207 87.2985 32.8245 80.737 26.263C74.1756 19.7015 65.2793 16.0106 56 16ZM56 83.8125C49.5103 83.8125 43.1664 81.8881 37.7704 78.2826C32.3744 74.6771 28.1687 69.5525 25.6852 63.5568C23.2017 57.5611 22.5519 50.9636 23.818 44.5986C25.0841 38.2336 28.2092 32.387 32.7981 27.7981C37.387 23.2091 43.2336 20.0841 49.5986 18.818C55.9636 17.5519 62.5611 18.2017 68.5568 20.6852C74.5525 23.1687 79.6771 27.3744 83.2826 32.7703C86.8881 38.1663 88.8125 44.5103 88.8125 51C88.8027 59.6994 85.3425 68.0397 79.1911 74.1911C73.0397 80.3425 64.6994 83.8027 56 83.8125Z" fill="#FFAE42"/>
</g>
<defs>
<clipPath id="clip0_11_145">
<rect width="70" height="70" fill="white" transform="translate(21 16)"/>
</clipPath>
</defs>
</svg>
