<svg width="280" height="380" viewBox="0 0 280 380" fill="none" xmlns="http://www.w3.org/2000/svg">
<path d="M137.725 160.827C156.944 163.195 223.297 166.085 244.592 169.354C241.479 173.665 239.256 176.791 239.256 176.791C239.256 176.791 139.998 172.907 127.992 181.339C133.575 169.164 137.725 160.827 137.725 160.827Z" fill="#FFC7A1"/>
<path d="M11.8869 46.2348C14.5054 41.0713 16.9264 32.2128 16.4817 30.1284C15.9876 28.044 16.2347 2.13173 22.8057 0C26.7088 1.18429 25.2267 14.4957 27.697 19.375C30.1673 24.2543 38.6652 29.8915 35.5032 34.7708C32.3412 39.6975 24.3373 42.4924 24.0903 44.5768C23.8433 46.6611 23.8433 52.0141 23.8433 52.0141L11.8869 46.2348Z" fill="#FFC7A1"/>
<path d="M62.5286 171.628C63.7144 159.216 58.6255 153.721 33.9716 139.604C22.5587 132.12 18.3592 112.508 20.7307 109.05C23.1022 105.592 25.5231 62.957 23.448 49.1245C19.2485 45.9506 11.8869 46.2348 11.8869 46.2348C11.8869 46.2348 -4.51606 109.334 1.2151 121.745C6.94626 134.157 27.6476 183.707 35.1574 194.082C42.6672 204.456 45.4834 270.161 48.9912 280.677C52.4991 291.194 33.6258 280.677 51.1651 356.377C51.1651 362.251 51.1651 362.251 51.1651 362.251H62.6768C62.6768 362.251 65.1966 294.936 65.6412 289.062C66.0859 283.188 84.5145 240.506 82.2912 204.219C80.068 167.933 62.5286 171.628 62.5286 171.628Z" fill="black"/>
<path d="M50.6711 163.859C53.0426 185.034 53.586 214.31 80.6608 206.493C86.5896 204.788 92.8148 203.556 98.8424 202.23C120.285 197.54 139.603 191.95 137.775 160.874C137.083 160.164 136.293 159.406 135.502 158.553C127.943 150.926 116.629 139.368 111.688 140.741C110.552 140.362 109.267 139.794 107.884 139.178C106.155 138.373 104.228 137.473 102.251 136.525C99.7812 135.341 97.2614 134.109 94.7911 133.067C87.2813 129.846 80.7102 124.967 75.5719 118.761C59.9595 99.8122 41.0862 75.7 24.288 65.5625C24.2386 70.347 24.0409 78.0686 24.0409 78.0686C24.0409 78.0686 78.8328 142.352 79.3269 151.495C79.3269 151.921 79.3268 152.395 79.2774 152.821C78.734 156.8 75.1273 161.443 70.3843 164.522C64.2084 168.549 56.2046 169.97 50.6711 163.859Z" fill="#FFC7A1"/>
<path d="M120.137 127.714C117.271 132.356 106.155 142.21 106.155 142.21L118.407 151.494C118.407 151.494 128.536 137.52 135.206 139.604C138.121 138.088 120.137 127.714 120.137 127.714Z" fill="#FFC7A1"/>
<path d="M122.064 97.0172C126.955 88.8219 123.793 79.5844 117.37 81.195C110.947 82.8057 104.178 96.8751 105.858 99.3384C107.538 101.754 114.257 106.018 122.064 97.0172Z" fill="#0B4870"/>
<path d="M111.935 112.223C111.935 124.54 121.866 134.488 134.168 134.488C146.47 134.488 156.352 124.493 156.352 112.223C156.352 94.6958 142.32 90.3376 130.018 90.3376C117.765 90.3376 111.935 99.9067 111.935 112.223Z" fill="#0B4870"/>
<path d="M119.297 121.84C119.297 136.288 132.488 145.668 143.358 145.668C154.227 145.668 156.994 133.967 156.994 119.519C156.994 105.07 149.781 95.6907 138.961 95.6907C128.091 95.738 119.297 107.439 119.297 121.84Z" fill="#FFD1AE"/>
<path d="M129.722 104.976C130.907 106.918 151.856 109.95 156.697 115.019C164.405 100.049 144.148 89.6274 130.117 97.3016C123.694 104.976 129.722 104.976 129.722 104.976Z" fill="#0B4870"/>
<path d="M129.721 104.976C130.117 107.676 129.129 116.44 118.556 117.813C114.109 106.728 124.089 93.8906 130.117 97.254C133.229 101.138 129.721 104.976 129.721 104.976Z" fill="#0B4870"/>
<path d="M115.971 123.306C114.279 120.497 114.402 117.392 116.245 116.372C118.088 115.351 120.954 116.802 122.645 119.611C124.337 122.421 124.214 125.525 122.371 126.546C120.528 127.566 117.662 126.116 115.971 123.306Z" fill="#FFD1AE"/>
<path d="M70.3842 164.522C73.3486 183.755 89.7022 196.498 98.793 202.183C120.235 197.493 139.553 191.903 137.725 160.827C137.034 160.116 134.86 158.032 134.069 157.227C134.613 160.543 134.514 167.222 132.044 175.749C126.806 193.798 102.696 166.843 101.313 164.664C99.9294 162.485 109.712 150.5 107.834 139.178C106.105 138.373 104.178 137.473 102.202 136.525C103.141 149.6 96.7179 157.701 91.0362 158.601C85.4532 159.453 79.4256 153.105 79.228 152.869C78.734 156.8 75.1273 161.443 70.3842 164.522Z" fill="#FF6868"/>
<path d="M62.7262 360.83C67.2222 366.467 80.4632 373.81 89.0599 375.326C90.048 375.515 90.2951 376.7 89.5046 377.268C85.5026 379.921 81.3525 380.774 68.0621 377.884C62.6274 377.221 58.3784 379.637 50.5228 378.831C47.8054 378.547 51.2145 362.299 51.2145 362.299L62.7262 360.83Z" fill="#FFC7A1"/>
<path d="M244.592 169.354C262.625 167.269 275.866 174.328 279.077 175.749C277.496 178.449 252.349 176.696 251.854 178.496C251.36 180.297 259.117 182.665 257.783 184.986C255.412 184.228 239.256 176.838 239.256 176.838C240.59 172.622 244.592 169.354 244.592 169.354Z" fill="#FFC7A1"/>
<path d="M16.0371 60.7779C17.5193 65.9414 10.1577 68.6889 8.5767 69.6837C6.99569 70.6785 3.63605 67.173 3.63605 67.173C3.63605 67.173 7.78618 57.5566 8.03321 56.7039C8.28024 55.8512 16.0371 60.7779 16.0371 60.7779Z" fill="#FFC7A1"/>
</svg>
