<svg width="112" height="102" viewBox="0 0 112 102" fill="none" xmlns="http://www.w3.org/2000/svg">
<rect width="112" height="102" rx="20" fill="#FFAE42" fill-opacity="0.25"/>
<path d="M26.4688 60.2969H89.9062M61.4688 18.9531H25.5937C23.625 18.9531 22.0938 20.5938 22.0938 22.5625V67.4062C22.0938 69.375 23.625 70.9062 25.5937 70.9062H86.4062C88.375 70.9062 89.9062 69.375 89.9062 67.4062V22.5625C89.9062 20.5938 88.375 19.0625 86.4062 19.0625L61.4688 18.9531Z" stroke="#FFAE42" stroke-width="2" stroke-miterlimit="10" stroke-linecap="round" stroke-linejoin="round"/>
<path d="M57.8594 42.25C60.336 42.25 62.3438 40.2423 62.3438 37.7656C62.3438 35.289 60.336 33.2812 57.8594 33.2812C55.3827 33.2812 53.375 35.289 53.375 37.7656C53.375 40.2423 55.3827 42.25 57.8594 42.25Z" stroke="#FFAE42" stroke-width="2" stroke-miterlimit="10" stroke-linecap="round" stroke-linejoin="round"/>
<path d="M57.8594 42.25L55.6719 48.0469" stroke="#FFAE42" stroke-width="2" stroke-miterlimit="10" stroke-linecap="round" stroke-linejoin="round"/>
<path d="M54.5781 53.5156C56.1487 53.5156 57.4219 52.2424 57.4219 50.6719C57.4219 49.1013 56.1487 47.8281 54.5781 47.8281C53.0076 47.8281 51.7344 49.1013 51.7344 50.6719C51.7344 52.2424 53.0076 53.5156 54.5781 53.5156Z" stroke="#FFAE42" stroke-width="2" stroke-miterlimit="10" stroke-linecap="round" stroke-linejoin="round"/>
<path d="M53.375 37.7656H47.7969" stroke="#FFAE42" stroke-width="2" stroke-miterlimit="10" stroke-linecap="round" stroke-linejoin="round"/>
<path d="M44.9531 40.6094C46.5237 40.6094 47.7969 39.3362 47.7969 37.7656C47.7969 36.1951 46.5237 34.9219 44.9531 34.9219C43.3826 34.9219 42.1094 36.1951 42.1094 37.7656C42.1094 39.3362 43.3826 40.6094 44.9531 40.6094Z" stroke="#FFAE42" stroke-width="2" stroke-miterlimit="10" stroke-linecap="round" stroke-linejoin="round"/>
<path d="M61.1406 34.5938L64.9688 30.6562" stroke="#FFAE42" stroke-width="2" stroke-miterlimit="10" stroke-linecap="round" stroke-linejoin="round"/>
<path d="M69.0432 30.5823C70.1537 29.4717 70.1537 27.6711 69.0431 26.5606C67.9325 25.4501 66.132 25.4501 65.0214 26.5607C63.9109 27.6712 63.9109 29.4718 65.0215 30.5823C66.1321 31.6929 67.9326 31.6928 69.0432 30.5823Z" stroke="#FFAE42" stroke-width="2" stroke-miterlimit="10" stroke-linecap="round" stroke-linejoin="round"/>
<path d="M61.1406 40.9375L64.9688 44.875" stroke="#FFAE42" stroke-width="2" stroke-miterlimit="10" stroke-linecap="round" stroke-linejoin="round"/>
<path d="M69.0675 48.9808C70.178 47.8702 70.178 46.0696 69.0674 44.9591C67.9568 43.8486 66.1562 43.8486 65.0457 44.9592C63.9352 46.0697 63.9352 47.8703 65.0458 48.9808C66.1564 50.0914 67.9569 50.0913 69.0675 48.9808Z" stroke="#FFAE42" stroke-width="2" stroke-miterlimit="10" stroke-linecap="round" stroke-linejoin="round"/>
<path d="M54.6875 34.5938L50.75 30.6562" stroke="#FFAE42" stroke-width="2" stroke-miterlimit="10" stroke-linecap="round" stroke-linejoin="round"/>
<path d="M50.7989 30.5616C51.9094 29.4511 51.9094 27.6505 50.7988 26.54C49.6883 25.4294 47.8877 25.4295 46.7772 26.54C45.6666 27.6506 45.6667 29.4512 46.7772 30.5617C47.8878 31.6722 49.6884 31.6722 50.7989 30.5616Z" stroke="#FFAE42" stroke-width="2" stroke-miterlimit="10" stroke-linecap="round" stroke-linejoin="round"/>
<path d="M53.1563 65.6562H58.8437M67.2656 78.4531L66.2813 77.7969C66.0625 77.5781 65.7344 77.3594 65.625 77.0312H46.375C46.1563 77.3594 45.9375 77.5781 45.7188 77.7969L44.7344 78.4531C44.0781 78.8906 43.75 79.6562 43.75 80.5312V81.5156C43.75 82.3906 44.4063 83.0469 45.2813 83.0469H66.8281C67.7031 83.0469 68.3594 82.3906 68.3594 81.5156V80.5312C68.3594 79.6562 67.9219 78.8906 67.2656 78.4531ZM65.1875 76.1562L63 70.9062H48.8906L46.7031 76.1562C46.5938 76.4844 46.4844 76.8125 46.2656 77.0312H65.5156C65.5156 76.7031 65.2969 76.4844 65.1875 76.1562Z" stroke="#FFAE42" stroke-width="2" stroke-miterlimit="10" stroke-linecap="round" stroke-linejoin="round"/>
</svg>
