<svg width="112" height="102" viewBox="0 0 112 102" fill="none" xmlns="http://www.w3.org/2000/svg">
<rect width="112" height="102" rx="20" fill="#FFAE42" fill-opacity="0.25"/>
<path d="M74.5212 66.7367C72.3556 65.9826 76.7062 67.4908 74.5212 66.7367V66.7367Z" fill="#FFAE42"/>
<path d="M74.5211 66.7367C71.9107 65.8279 69.0877 65.7699 66.4773 64.8611C65.6846 64.5904 64.1184 64.2617 63.7896 63.3529C63.4803 62.4635 63.4803 61.4193 63.4223 60.4912C63.3836 59.7564 63.3643 59.0217 63.3643 58.2869C63.3643 57.8035 64.6018 56.7787 64.8725 56.334C65.9166 54.5937 66.0133 52.2541 66.2066 50.2818C67.8889 50.7459 68.1016 47.6328 68.3916 46.6853C68.6043 46.0279 69.8998 41.5033 67.8889 42.1221C68.3723 41.2713 68.5656 40.2271 68.701 39.2797C69.0877 36.8047 69.2424 34.0976 68.4883 31.6806C66.9221 26.6533 62.1074 23.8303 57.0221 23.6756C51.8594 23.5015 46.6773 25.9765 44.7437 30.9846C43.8156 33.4209 43.893 36.0699 44.2023 38.6222C44.3377 39.7824 44.5311 41.0779 45.1111 42.1221C43.2355 41.5613 44.241 45.5445 44.4537 46.2406C44.7631 47.2267 45.0338 50.7652 46.7934 50.2818C46.948 51.848 47.1221 53.4529 47.5475 54.9804C47.8375 56.0053 48.4369 56.8754 49.133 57.6681C49.4811 58.0549 49.6551 58.0935 49.6357 58.5963C49.6164 60.1045 49.6551 61.7287 49.2684 63.1982C48.8816 64.6678 45.6525 65.2865 44.357 65.5572C40.8766 66.2726 37.6668 66.6013 34.7664 68.767C31.3826 71.2613 29.623 75.1478 29.623 79.3437H83.377C83.377 73.6396 79.9352 68.6123 74.5211 66.7367Z" fill="#FFAE42"/>
<path d="M34.7084 64.3584L35.0178 64.2037C34.9598 64.2231 34.9018 64.2617 34.8631 64.2811C34.8051 64.3004 34.7664 64.3197 34.7084 64.3584Z" fill="#FFAE42"/>
<path d="M34.7084 64.3584C34.051 64.6871 33.2582 65.0932 34.8631 64.281L35.0178 64.2037C36.3326 63.585 37.7441 63.4303 39.1557 63.2949C39.6971 63.2369 39.9484 62.8695 39.5424 62.3475C38.7689 61.3613 36.1006 61.168 34.9791 60.7232C34.283 60.4525 34.0897 60.2012 34.0316 59.4277C34.0123 59.0797 33.8189 57.5328 34.0897 57.2814C34.283 57.0881 35.5012 57.1654 35.7719 57.1268C36.874 56.9914 37.9955 56.7594 39.0397 56.3533C39.4844 56.1793 39.9098 55.9666 40.2965 55.6959C40.7606 55.3479 39.9484 54.4971 39.7357 54.033C39.0783 52.5828 38.7883 50.9973 38.6916 49.4117C38.4982 46.2986 38.9816 43.1662 38.4016 40.0725C37.5314 35.3352 33.877 32.9568 29.217 32.9568C26.3359 32.9568 23.4936 33.943 21.8887 36.4566C20.1098 39.2217 20.2064 42.6635 20.3031 45.8152C20.3611 47.6135 20.4385 49.4311 20.1871 51.2293C20.0711 52.0027 19.8971 52.7568 19.6264 53.4916C19.4137 54.0523 18.3309 55.4445 18.7563 55.7346C20.3611 56.8754 23.0682 57.2621 25.0018 57.1074C25.0598 58.0549 25.2338 59.273 24.8857 60.1625C24.3443 61.5547 20.3031 61.9221 19.085 62.3281C15.7012 63.4496 13.1875 66.1953 13.1875 70.0625H28.5596C28.8109 70.0625 29.7777 68.2642 30.0484 67.9742C31.3633 66.524 32.9682 65.2672 34.7084 64.3584Z" fill="#FFAE42"/>
<path d="M93.8764 62.3087C92.3102 61.806 89.2938 61.6513 88.1723 60.2978C87.6115 59.621 87.9209 57.9001 87.9789 57.088C88.8297 57.1654 89.7578 57.03 90.628 56.914C91.4207 56.798 92.1942 56.6433 92.9483 56.3726C93.2963 56.2373 93.6444 56.1019 93.9731 55.9085C94.7272 55.4638 94.3791 55.3865 93.9924 54.729C91.8848 51.1906 92.8322 46.7046 92.7356 42.8181C92.6582 39.589 91.8074 36.0505 88.8684 34.233C86.2194 32.5894 82.2942 32.5314 79.4518 33.6916C71.2534 36.9787 76.0873 47.8455 73.2836 54.0716C72.8002 55.1158 72.1041 55.4831 73.3223 56.1019C73.9991 56.4499 74.7338 56.682 75.4686 56.856C76.5901 57.1267 77.7502 57.2814 78.9104 57.3201C79.1037 57.3201 78.9684 59.7564 78.9104 60.0078C78.6977 60.9552 76.6287 61.2259 75.8553 61.4386C75.0625 61.6513 73.7477 61.7093 73.361 62.5408C72.7809 63.7783 75.2752 63.4689 75.894 63.5849C77.8856 63.9523 79.6451 65.0544 81.192 66.3113C82.3522 67.2587 83.9184 68.5349 84.3438 70.0818H99.8512C99.8125 66.1953 97.2795 63.4302 93.8764 62.3087Z" fill="#FFAE42"/>
</svg>
