<svg width="48" height="48" viewBox="0 0 48 48" fill="none" xmlns="http://www.w3.org/2000/svg">
<path d="M24 4C19.7565 4 15.6869 5.68571 12.6863 8.68629C9.68571 11.6869 8 15.7565 8 20C8 30.8 22.1 43 22.7 43.52C23.0623 43.8299 23.5233 44.0001 24 44.0001C24.4767 44.0001 24.9377 43.8299 25.3 43.52C26 43 40 30.8 40 20C40 15.7565 38.3143 11.6869 35.3137 8.68629C32.3131 5.68571 28.2435 4 24 4ZM24 39.3C19.74 35.3 12 26.68 12 20C12 16.8174 13.2643 13.7652 15.5147 11.5147C17.7652 9.26428 20.8174 8 24 8C27.1826 8 30.2348 9.26428 32.4853 11.5147C34.7357 13.7652 36 16.8174 36 20C36 26.68 28.26 35.32 24 39.3ZM24 12C22.4177 12 20.871 12.4692 19.5554 13.3482C18.2398 14.2273 17.2145 15.4767 16.609 16.9385C16.0035 18.4003 15.845 20.0089 16.1537 21.5607C16.4624 23.1126 17.2243 24.538 18.3431 25.6569C19.462 26.7757 20.8874 27.5376 22.4393 27.8463C23.9911 28.155 25.5997 27.9965 27.0615 27.391C28.5233 26.7855 29.7727 25.7602 30.6518 24.4446C31.5308 23.129 32 21.5823 32 20C32 17.8783 31.1571 15.8434 29.6569 14.3431C28.1566 12.8429 26.1217 12 24 12ZM24 24C23.2089 24 22.4355 23.7654 21.7777 23.3259C21.1199 22.8864 20.6072 22.2616 20.3045 21.5307C20.0017 20.7998 19.9225 19.9956 20.0769 19.2196C20.2312 18.4437 20.6122 17.731 21.1716 17.1716C21.731 16.6122 22.4437 16.2312 23.2196 16.0769C23.9956 15.9225 24.7998 16.0017 25.5307 16.3045C26.2616 16.6072 26.8864 17.1199 27.3259 17.7777C27.7654 18.4355 28 19.2089 28 20C28 21.0609 27.5786 22.0783 26.8284 22.8284C26.0783 23.5786 25.0609 24 24 24Z" fill="#FFEB80"/>
</svg>
