<svg width="129" height="128" viewBox="0 0 129 128" fill="none" xmlns="http://www.w3.org/2000/svg">
<rect width="128.199" height="128" rx="32" fill="#FFAE42" fill-opacity="0.25"/>
<path d="M56.7034 39.8107C55.0392 39.8107 53.7012 38.4565 53.7012 36.8085C53.7012 35.1605 55.0555 33.8062 56.7034 33.8062C58.3677 33.8062 59.7057 35.1605 59.7057 36.8085C59.7057 38.4565 58.3677 39.8107 56.7034 39.8107ZM56.7034 41.7361C62.7079 41.7361 67.5866 46.6147 67.5866 52.6192C67.5866 55.9315 66.1018 58.8848 63.7685 60.8917C62.7079 60.3696 61.5168 60.0759 60.1952 60.0759C59.9178 60.0759 59.6241 60.0922 59.3957 60.1085C58.7593 60.1575 56.5729 60.5164 54.9576 62.866C54.8597 63.0129 54.7618 63.1597 54.6802 63.3065C49.6384 62.3602 45.8203 57.9384 45.8203 52.6192C45.8203 46.6147 50.6826 41.7361 56.7034 41.7361ZM52.967 54.9851C53.0159 55.9152 53.3096 56.6494 53.8807 57.1552C54.4844 57.71 55.2513 58.0363 56.1487 58.1342V59.3416C56.1487 59.5048 56.2792 59.6353 56.4424 59.6353H57.5193C57.6824 59.6353 57.813 59.5048 57.813 59.3416V58.1016C58.5472 57.971 59.1346 57.6773 59.5915 57.2368C60.1299 56.7147 60.4073 56.0294 60.4073 55.1646C60.4073 54.2672 60.1462 53.5656 59.6078 53.0924C59.0693 52.6029 58.2372 52.1297 57.095 51.6402C56.6055 51.4281 56.2629 51.216 56.0834 51.0039C55.9039 50.7918 55.806 50.5144 55.806 50.1717C55.806 49.8291 55.8876 49.568 56.0508 49.3396C56.214 49.1275 56.475 49.0133 56.834 49.0133C57.1766 49.0133 57.454 49.1438 57.6661 49.4049C57.8293 49.617 57.9272 49.9107 57.9598 50.3023C57.9761 50.4817 58.1393 50.6123 58.3025 50.596L60.0647 50.5633C60.2605 50.5633 60.4236 50.4002 60.4073 50.2044C60.3584 49.4375 60.1136 48.7848 59.6567 48.2627C59.1836 47.7243 58.5635 47.3653 57.7967 47.2184V45.8968C57.7967 45.7336 57.6661 45.6031 57.503 45.6031H56.4261C56.2629 45.6031 56.1324 45.7336 56.1324 45.8968V47.1858C55.3165 47.3 54.6476 47.61 54.1418 48.0995C53.587 48.638 53.2933 49.3233 53.2933 50.1554C53.2933 51.0691 53.5544 51.7708 54.0928 52.2439C54.6149 52.7171 55.4634 53.1903 56.6219 53.6472C57.095 53.8593 57.4377 54.0714 57.6172 54.2835C57.7967 54.4956 57.8946 54.8056 57.8946 55.1809C57.8946 55.5236 57.7967 55.7846 57.6172 55.9967C57.4377 56.2089 57.1603 56.3068 56.8177 56.3068C56.3934 56.3068 56.0508 56.1762 55.7897 55.8988C55.5776 55.6867 55.4471 55.3441 55.3981 54.8872C55.3818 54.7077 55.2186 54.5772 55.0555 54.5772L53.2933 54.6098C53.1138 54.6262 52.967 54.7893 52.967 54.9851ZM87.1991 68.5442C86.3017 67.8425 76.9196 57.4326 74.4069 55.9641V28.9602C74.4069 26.219 72.1878 24 69.4467 24H43.9602C41.2191 24 39 26.219 39 28.9602V76.2293C39 78.9704 41.2191 81.1895 43.9602 81.1895H52.1348H55.0555L54.5986 77.3061C54.4518 77.1756 54.3539 77.094 54.207 76.9635H52.5754H49.3121C49.4589 76.3598 49.5079 75.7234 49.4263 75.0708C49.1652 73.0149 47.5988 71.3017 45.5919 70.8448C44.7597 70.649 43.9765 70.6816 43.2423 70.8611V34.0347C44.0744 34.1978 44.9882 34.1489 45.9182 33.7899C46.9135 33.4146 47.7457 32.6967 48.3331 31.8156C49.1652 30.5429 49.2957 29.3192 49.0999 28.2097H64.3233C64.1275 29.3029 64.258 30.494 65.0575 31.7667C65.6286 32.6804 66.4771 33.3983 67.4724 33.7736C68.4187 34.1326 69.3325 34.1815 70.1809 34.0184V69.9311V80.2431C68.4514 78.9704 66.5097 74.9892 66.5097 74.9892C66.5097 74.9892 65.5633 64.3834 60.1952 64.3834C60.0483 64.3834 59.9178 64.3834 59.771 64.3998C59.771 64.3998 55.7081 64.7424 59.0693 76.3761L60.5705 89.2825C60.5705 89.2825 62.2511 96.2986 66.885 101.145V102.597C66.885 103.364 67.505 104 68.2882 104H83.3973C84.1152 104 84.7026 103.462 84.7842 102.76C85.3227 97.7834 87.3785 79.4436 88.6023 76.2945C88.8307 75.6908 89.0428 75.0871 89.1244 74.4507C89.3202 72.8191 89.2713 70.1432 87.1991 68.5442Z" fill="#FFAE42"/>
</svg>
