<svg width="56" height="56" viewBox="0 0 56 56" fill="none" xmlns="http://www.w3.org/2000/svg">
<circle cx="28" cy="28" r="28" fill="#FFAE42"/>
<path d="M24.7727 33.3247C26.9322 33.1507 29.1016 33.1507 31.2611 33.3247C32.4371 33.3933 33.6075 33.5404 34.7649 33.7651C37.2694 34.2722 38.9045 35.0996 39.6053 36.4342C40.1316 37.4757 40.1316 38.7156 39.6053 39.7571C38.9045 41.0916 37.3343 41.9724 34.7389 42.4262C33.5824 42.6594 32.4118 42.811 31.2352 42.8799C30.1451 43 29.0551 43 27.952 43H25.9666C25.5513 42.9466 25.149 42.9199 24.7597 42.9199C23.5831 42.8594 22.4121 42.7122 21.256 42.4795C18.7514 41.9991 17.1163 41.145 16.4156 39.8105C16.1451 39.2935 16.0025 38.7161 16.0002 38.129C15.9947 37.5384 16.133 36.9557 16.4026 36.4342C17.0904 35.0996 18.7255 34.2322 21.256 33.7651C22.4172 33.5372 23.5922 33.39 24.7727 33.3247ZM28.0039 13C32.3543 13 35.8809 16.6267 35.8809 21.1005C35.8809 25.5743 32.3543 29.2011 28.0039 29.2011C23.6536 29.2011 20.127 25.5743 20.127 21.1005C20.127 16.6267 23.6536 13 28.0039 13Z" fill="white"/>
</svg>
