<svg width="128" height="128" viewBox="0 0 128 128" fill="none" xmlns="http://www.w3.org/2000/svg">
<rect width="128" height="128" rx="32" fill="#FFAE42" fill-opacity="0.25"/>
<path d="M71.07 58.9333C70.4449 58.3084 69.5972 57.9574 68.7134 57.9574C67.8295 57.9574 66.9818 58.3084 66.3567 58.9333L64 61.2867C63.3851 61.9234 62.6494 62.4313 61.8361 62.7807C61.0227 63.1301 60.1479 63.314 59.2627 63.3217C58.3775 63.3294 57.4996 63.1607 56.6803 62.8255C55.861 62.4903 55.1167 61.9953 54.4907 61.3693C53.8648 60.7434 53.3698 59.999 53.0346 59.1797C52.6993 58.3604 52.5307 57.4825 52.5384 56.5973C52.546 55.7121 52.73 54.8373 53.0794 54.024C53.4287 53.2106 53.9366 52.475 54.5734 51.86L73.34 33.0867C77.7831 32.0761 82.4317 32.492 86.6248 34.2753C90.818 36.0585 94.3422 39.1183 96.6963 43.0197C99.0505 46.921 100.115 51.4652 99.7378 56.0061C99.3608 60.5471 97.5619 64.8536 94.5967 68.3133L87.57 75.43L71.07 58.9333ZM34.5367 38.8933C37.9859 35.4446 42.4974 33.2599 47.3419 32.6926C52.1864 32.1252 57.0806 33.2083 61.2334 35.7667L49.8567 47.1467C47.3927 49.6058 45.9881 52.931 45.9432 56.4119C45.8982 59.8927 47.2163 63.2532 49.616 65.7751C52.0156 68.2971 55.3064 69.7805 58.7852 69.9085C62.264 70.0365 65.6549 68.7988 68.2334 66.46L68.7134 66.0033L82.8567 80.1433L68.7134 94.2867C67.4632 95.5365 65.7678 96.2386 64 96.2386C62.2323 96.2386 60.5369 95.5365 59.2867 94.2867L34.5334 69.5333C30.4705 65.4701 28.188 59.9594 28.188 54.2133C28.188 48.4673 30.4738 42.9566 34.5367 38.8933Z" fill="#FFAE42"/>
</svg>
