<svg width="128" height="128" viewBox="0 0 128 128" fill="none" xmlns="http://www.w3.org/2000/svg">
<rect width="128" height="128" rx="32" fill="#FFAE42" fill-opacity="0.25"/>
<path d="M102.001 101.5L83.905 83.4046M83.905 83.4046C87.0004 80.3092 89.4558 76.6345 91.131 72.5902C92.8062 68.5459 93.6684 64.2113 93.6684 59.8338C93.6684 55.4563 92.8062 51.1216 91.131 47.0773C89.4558 43.033 87.0004 39.3583 83.905 36.2629C80.8097 33.1676 77.1349 30.7122 73.0906 29.037C69.0463 27.3618 64.7117 26.4996 60.3342 26.4996C55.9567 26.4996 51.622 27.3618 47.5777 29.037C43.5335 30.7122 39.8587 33.1676 36.7634 36.2629C30.512 42.5143 27 50.993 27 59.8338C27 68.6745 30.512 77.1532 36.7634 83.4046C43.0147 89.656 51.4934 93.168 60.3342 93.168C69.175 93.168 77.6536 89.656 83.905 83.4046Z" stroke="#FFAE42" stroke-width="4" stroke-linecap="round" stroke-linejoin="round"/>
</svg>
