<svg width="128" height="128" viewBox="0 0 128 128" fill="none" xmlns="http://www.w3.org/2000/svg">
<rect width="128" height="128" rx="32" fill="#FFAE42" fill-opacity="0.25"/>
<path d="M53.3179 40.0366C57.548 41.6999 62.3536 39.6792 64.0456 35.525C65.7408 31.3705 63.6819 26.6509 59.4516 24.989C55.2201 23.3243 50.4178 25.345 48.7224 29.5009C47.0306 33.6553 49.0848 38.3719 53.3179 40.0366Z" fill="#FFAE42"/>
<path d="M103.244 44.3803L92.1773 26.1592C91.3344 24.6167 89.63 23.8238 87.9612 24.0331C87.9222 24.0362 87.8834 24.0452 87.8462 24.0484C87.7232 24.0682 87.5988 24.0943 87.4761 24.1232C87.4029 24.1431 87.3283 24.1584 87.2569 24.1812C87.0017 24.2593 86.7514 24.3599 86.5088 24.4882C86.0578 24.7267 85.5493 25.0535 85.2289 25.4109L73.0566 34.6696L64.2 41.3533C60.4799 43.7161 57.598 43.6015 54.2436 42.847L28.1366 35.5706C26.44 35.0681 24.6468 36.012 24.1367 37.6798C23.6267 39.3461 24.5876 41.1072 26.286 41.6097L51.1673 51.0822C52.2622 51.3969 54.1019 53.966 55.3614 55.3374C57.2012 57.3474 64.2105 67.6019 80.8012 67.9685C81.8197 67.9915 82.0733 68.2435 82.1993 68.9308L85.3299 100.299C85.3299 102.343 87.0173 104 89.0981 104C91.1774 104 92.8662 102.343 92.8662 100.299C92.8662 100.299 93.2379 60.1424 93.2846 59.4582C93.3406 58.6166 93.8787 58.1386 94.6408 57.4727C94.6408 57.4727 101.044 51.2838 101.155 51.212C104.381 49.115 104.533 46.4606 103.244 44.3803ZM82.4808 52.3195C81.7033 52.8724 78.8867 53.4055 77.7296 53.3855C70.946 53.2786 70.3644 47.8795 72.4156 45.8648L78.1293 40.5956L86.3422 33.1834L92.0997 44.8951L82.4808 52.3195Z" fill="#FFAE42"/>
</svg>
