<svg width="803" height="610" viewBox="0 0 803 610" fill="none" xmlns="http://www.w3.org/2000/svg">
<ellipse cx="405.875" cy="303.655" rx="40.2226" ry="37.7184" fill="#FFAE42" fill-opacity="0.1"/>
<ellipse cx="404.657" cy="303.655" rx="60.9434" ry="56.0061" fill="#FFAE42" fill-opacity="0.1"/>
<ellipse cx="404.657" cy="303.655" rx="80.4453" ry="76.5797" fill="#FFAE42" fill-opacity="0.1"/>
<ellipse cx="405.876" cy="303.655" rx="101.166" ry="94.8674" fill="#FFAE42" fill-opacity="0.1"/>
<ellipse cx="404.657" cy="303.655" rx="121.887" ry="113.155" fill="#FFAE42" fill-opacity="0.1"/>
<ellipse cx="404.657" cy="303.655" rx="141.389" ry="131.443" fill="#FFAE42" fill-opacity="0.1"/>
<ellipse cx="404.657" cy="303.655" rx="160.891" ry="152.016" fill="#FFAE42" fill-opacity="0.1"/>
<ellipse cx="405.875" cy="303.655" rx="181.611" ry="170.304" fill="#FFAE42" fill-opacity="0.1"/>
<ellipse cx="404.657" cy="303.655" rx="202.332" ry="188.592" fill="#FFAE42" fill-opacity="0.1"/>
<ellipse cx="404.657" cy="303.655" rx="221.834" ry="209.165" fill="#FFAE42" fill-opacity="0.1"/>
<ellipse cx="408.313" cy="303.655" rx="242.555" ry="227.453" fill="#FFAE42" fill-opacity="0.1"/>
<ellipse cx="405.875" cy="303.655" rx="262.057" ry="245.741" fill="#FFAE42" fill-opacity="0.1"/>
<ellipse cx="401" cy="303.655" rx="281.558" ry="264.029" fill="#FFAE42" fill-opacity="0.1"/>
<ellipse cx="401" cy="303.655" rx="323" ry="302.89" fill="#FFAE42" fill-opacity="0.1"/>
<path d="M401.292 506.421C563.918 506.421 695.752 481.329 695.752 450.376C695.752 419.423 563.918 394.33 401.292 394.33C238.667 394.33 106.833 419.423 106.833 450.376C106.833 481.329 238.667 506.421 401.292 506.421Z" fill="#F3F3F3"/>
<path fill-rule="evenodd" clip-rule="evenodd" d="M171.282 317.718C122.87 248.92 134.79 126.764 246.372 112.156C357.954 97.5493 388.242 208.944 480.849 188.293C573.456 167.642 632.688 207.532 639.855 259.181C647.022 310.83 632.688 371.737 545.032 374.685C457.375 377.632 439.823 358.124 388.441 363.412C337.058 368.701 219.694 386.516 171.282 317.718Z" fill="#FBFBFB"/>
<path fill-rule="evenodd" clip-rule="evenodd" d="M424.886 169.164C447.153 177.94 468.53 174.003 472.631 160.37C476.732 146.738 462.005 128.572 439.737 119.796C417.469 111.02 396.093 114.957 391.992 128.59C387.891 142.223 402.618 160.388 424.886 169.164Z" fill="#FBFBFB"/>
<path opacity="0.2" d="M303.785 231.917C301.768 228.36 297.295 226.986 293.622 228.858C290.711 230.341 289.155 233.43 289.477 236.501C287.182 234.436 283.768 233.879 280.857 235.362C277.249 237.201 275.722 241.504 277.272 245.183C279.292 251.687 293.971 255.72 298.398 256.798C299.131 256.976 299.884 256.6 300.182 255.907C301.998 251.679 307.711 237.284 303.785 231.917Z" fill="#FFAE42"/>
<path opacity="0.2" d="M537.094 315.219C536.911 311.202 533.528 308.001 529.38 308.001C526.093 308.001 523.287 310.013 522.173 312.847C521.058 310.013 518.252 308.001 514.965 308.001C510.891 308.001 507.556 311.09 507.265 315.006C506.104 321.608 517.422 331.696 520.899 334.618C521.475 335.101 522.323 335.108 522.906 334.634C526.466 331.739 538.163 321.676 537.094 315.219Z" fill="#FFAE42"/>
<path opacity="0.2" d="M476.14 223.406C476.03 220.956 473.995 219.003 471.5 219.003C469.522 219.003 467.834 220.23 467.164 221.959C466.493 220.23 464.805 219.003 462.828 219.003C460.377 219.003 458.37 220.887 458.196 223.276C457.497 227.304 464.306 233.458 466.398 235.24C466.744 235.535 467.254 235.539 467.605 235.25C469.746 233.484 476.783 227.345 476.14 223.406Z" fill="#FFAE42"/>
<path opacity="0.2" d="M361.664 117.54C361.593 115.906 360.265 114.604 358.638 114.604C357.348 114.604 356.247 115.422 355.81 116.575C355.373 115.422 354.272 114.604 352.982 114.604C351.384 114.604 350.075 115.861 349.961 117.453C349.506 120.138 353.946 124.241 355.311 125.429C355.536 125.625 355.869 125.628 356.098 125.435C357.494 124.258 362.084 120.166 361.664 117.54Z" fill="#FF6868"/>
<path opacity="0.2" d="M581.237 164.507C581.17 162.991 579.931 161.782 578.412 161.782C577.208 161.782 576.181 162.541 575.773 163.612C575.364 162.541 574.337 161.782 573.133 161.782C571.641 161.782 570.42 162.948 570.314 164.427C569.889 166.92 574.033 170.73 575.306 171.833C575.517 172.016 575.827 172.018 576.041 171.839C577.345 170.746 581.628 166.946 581.237 164.507Z" fill="#FF6868"/>
<path opacity="0.2" d="M345.983 180.185C345.916 178.668 344.677 177.459 343.158 177.459C341.954 177.459 340.927 178.219 340.519 179.289C340.111 178.219 339.083 177.459 337.879 177.459C336.387 177.459 335.166 178.625 335.06 180.104C334.635 182.597 338.779 186.407 340.052 187.51C340.263 187.693 340.573 187.695 340.787 187.516C342.091 186.423 346.374 182.623 345.983 180.185Z" fill="#FFAE42"/>
<path fill-rule="evenodd" clip-rule="evenodd" d="M431.945 460.21C409.38 473.76 390.152 480.535 374.259 480.535C350.42 480.535 339.768 479.841 331.771 482.079C323.775 484.317 318.437 484.532 318.437 479.034C318.437 475.368 321.884 473.599 328.777 473.725C334.238 467.822 341.038 464.093 349.177 462.54C357.316 460.987 380.419 453.549 418.485 440.227H438.05L431.945 460.21Z" fill="#EE9B8B"/>
<path fill-rule="evenodd" clip-rule="evenodd" d="M368.554 374.997C364.221 379.925 353.093 385.088 335.171 390.489C308.288 398.589 264.294 394.129 243.63 413.975C222.965 433.821 243.63 465.011 281.806 465.011C307.257 465.011 348.039 470.186 404.152 480.535C410.253 470.361 411.233 459.023 407.094 446.52L421.22 442.925L427.951 468.171C457.868 462.666 486.154 458.951 512.809 457.028C533.221 455.555 554.148 450.667 564.249 440.681C573.934 431.106 575.279 410.206 558.072 401.248L505.989 385.632C464.09 389.706 440.609 386.161 435.546 374.997H368.554Z" fill="#3E3E49"/>
<path fill-rule="evenodd" clip-rule="evenodd" d="M405.548 478.044C410.885 477.836 414.77 477.977 417.203 478.467C432.845 481.616 432.964 483.185 442 484.317C451.036 485.449 483.623 481.24 495.124 482.778C506.624 484.317 511.106 484.317 511.106 478.467C511.106 472.616 500.777 472.021 497.318 470.603C493.858 469.185 472.552 466.445 462.878 456.565C453.204 446.685 443.299 452.317 438.714 454.441C435.858 455.764 427.978 453.674 407.626 448.013C408.532 453.249 408.985 458.439 408.985 463.585C408.985 466.677 407.839 471.497 405.548 478.044Z" fill="#FFA798"/>
<path fill-rule="evenodd" clip-rule="evenodd" d="M435.546 374.997C440.115 385.072 459.682 388.942 494.248 386.607C465.797 398.567 449.4 412.287 445.057 427.766L445.999 427.423L447.874 426.747C448.186 426.636 448.497 426.525 448.807 426.415L450.663 425.761L452.505 425.122L454.335 424.498L456.151 423.888C457.056 423.587 457.956 423.292 458.851 423.001L460.635 422.428L462.406 421.87L464.164 421.326L465.909 420.797L467.64 420.283C467.928 420.198 468.215 420.114 468.501 420.031L470.214 419.539C471.351 419.215 472.479 418.901 473.599 418.598L475.272 418.149C476.661 417.781 478.036 417.429 479.398 417.092L481.025 416.695C492.102 414.03 502.267 412.391 511.518 411.779L512.866 411.697C514.654 411.597 516.407 411.536 518.125 411.514L518.617 411.508L518.405 411.52C508.967 412.046 496.281 414.869 480.348 419.988L478.421 420.614L476.462 421.261L474.472 421.93L472.451 422.622C472.112 422.739 471.771 422.857 471.429 422.976L469.361 423.7C468.667 423.946 467.967 424.194 467.262 424.447L465.132 425.216C462.987 425.995 460.794 426.808 458.555 427.654L456.3 428.511C455.922 428.655 455.542 428.801 455.161 428.947L452.859 429.837L450.527 430.749C449.744 431.057 448.956 431.368 448.163 431.683L445.767 432.639C445.366 432.8 444.963 432.962 444.558 433.126L442.116 434.115L439.643 435.126L437.139 436.159L434.604 437.214L432.037 438.291L429.439 439.391L426.811 440.512L424.151 441.656L421.22 442.925L407.094 446.52C401.907 447.157 394.552 445.908 385.923 443.548L384.651 443.194C384.438 443.134 384.224 443.073 384.009 443.012L382.711 442.636L381.396 442.245L380.066 441.841L378.72 441.423C378.494 441.352 378.268 441.281 378.041 441.209L376.673 440.772L375.292 440.322C375.06 440.247 374.828 440.17 374.596 440.094L373.194 439.627L371.781 439.15L369.638 438.415L368.197 437.914L366.745 437.403L365.284 436.884L363.075 436.092L360.103 435.011L358.607 434.461L355.597 433.347L352.567 432.215L347.234 430.206L339.214 427.171L335.865 425.908C317.295 418.921 296.037 416.83 272.09 419.636C294.243 414.072 319.943 415.371 349.192 423.534C350.089 411.003 343.429 400.503 329.211 392.034C331.274 391.574 333.265 391.063 335.171 390.489L336.343 390.133L337.495 389.778L338.627 389.423L340.289 388.893L341.372 388.541C341.551 388.482 341.729 388.423 341.906 388.365L342.96 388.013L344.504 387.487L345.508 387.137L346.493 386.788L347.458 386.439L348.403 386.091L349.329 385.744L350.235 385.398L351.121 385.052L351.988 384.707C352.131 384.649 352.273 384.592 352.414 384.535L353.251 384.191L354.068 383.847L354.866 383.504L355.644 383.162L356.402 382.821L357.141 382.481L357.86 382.141L358.559 381.801L359.239 381.463L359.899 381.125L360.539 380.788C360.644 380.731 360.748 380.675 360.851 380.619L361.462 380.283C361.662 380.171 361.859 380.059 362.053 379.948L362.624 379.613L363.176 379.279C363.537 379.056 363.885 378.834 364.22 378.612L364.712 378.28L365.185 377.949C366.497 377.011 367.572 376.081 368.409 375.16L368.554 374.997H435.546ZM526.676 411.747C524.456 411.591 522.17 411.51 519.817 411.505L518.617 411.508L519.066 411.486C521.906 411.358 524.443 411.445 526.676 411.747Z" fill="#33343E"/>
<path fill-rule="evenodd" clip-rule="evenodd" d="M424.95 250.8C435.911 254.196 445.249 252.651 451.332 257.192C462.22 265.319 463.327 296.842 465.012 309.648C466.698 322.455 468.395 339.479 472.845 345.493C475.767 349.443 495.203 363.882 531.152 388.811C532.073 389.45 533.265 389.549 534.279 389.07C536.693 387.931 540.237 387.361 544.912 387.361C553.538 387.361 563.401 387.848 569.461 383.891C575.521 379.934 573.837 388.984 569.461 391.342C566.544 392.914 564.276 393.969 562.658 394.504C568.557 396.448 574.816 396.768 581.433 395.466C591.36 393.513 588.899 398.977 580.074 400.41C574.191 401.366 568.667 402.068 563.502 402.517C551.572 408.67 543.785 411.747 540.14 411.747C536.494 411.747 530.888 409.269 523.32 404.312L484.668 387.139C463.804 377.869 448.018 359.97 441.433 338.117L441.333 337.785L424.95 250.8Z" fill="#FFA798"/>
<path opacity="0.5" fill-rule="evenodd" clip-rule="evenodd" d="M446.684 293.954C443.743 299.762 440.032 304.14 435.551 307.089L441.333 337.785L441.433 338.117C446.641 355.402 457.606 370.213 472.287 380.237C452.686 360.664 448.658 345.522 450.66 328.841L450.723 328.335C452.41 315.058 451.063 303.598 446.684 293.954Z" fill="#E08F81"/>
<path fill-rule="evenodd" clip-rule="evenodd" d="M566.405 401.248C567.916 400.626 569.217 399.635 570.31 398.275L575.217 391.408C576.123 390.139 577.484 389.268 579.016 388.976C579.691 388.848 580.342 389.29 580.471 389.965C580.52 390.221 580.487 390.486 580.376 390.723L575.58 401.013C574.215 403.939 571.631 406.116 568.515 406.965L563.745 408.265C562.406 411.71 558.408 413.135 551.75 412.541C548.423 414.907 542.958 414.345 535.354 410.858" fill="#FFA698"/>
<path d="M566.405 401.248C567.916 400.626 569.217 399.635 570.31 398.275L575.217 391.408C576.123 390.139 577.484 389.268 579.016 388.976C579.691 388.848 580.342 389.29 580.471 389.965C580.52 390.221 580.487 390.486 580.376 390.723L575.58 401.013C574.215 403.939 571.631 406.116 568.515 406.965L563.745 408.265C562.406 411.71 558.408 413.135 551.75 412.541C548.423 414.907 542.958 414.345 535.354 410.858" stroke="#CE7768"/>
<path fill-rule="evenodd" clip-rule="evenodd" d="M563.745 408.265L569.516 393.34C569.843 392.494 569.423 391.544 568.577 391.217C568.276 391.101 567.947 391.076 567.632 391.145C565.756 391.557 564.191 392.843 563.422 394.602L558.379 406.152L552.894 408.265" fill="#FFA698"/>
<path d="M563.745 408.265L569.516 393.34C569.843 392.494 569.423 391.544 568.577 391.217C568.276 391.101 567.947 391.076 567.632 391.145C565.756 391.557 564.191 392.843 563.422 394.602L558.379 406.152L552.894 408.265" stroke="#CE7768"/>
<path fill-rule="evenodd" clip-rule="evenodd" d="M551.75 412.541L559.212 400.949C559.555 400.415 559.401 399.705 558.868 399.362C558.608 399.195 558.293 399.14 557.993 399.208C556.205 399.612 554.571 400.521 553.286 401.827L547.859 407.343C545.044 406.174 540.876 405.59 535.354 405.59" fill="#FFA698"/>
<path d="M551.75 412.541L559.212 400.949C559.555 400.415 559.401 399.705 558.868 399.362C558.608 399.195 558.293 399.14 557.993 399.208C556.205 399.612 554.571 400.521 553.286 401.827L547.859 407.343C545.044 406.174 540.876 405.59 535.354 405.59" stroke="#CE7768"/>
<path d="M562.658 394.504C555.288 397.724 547.595 398.402 539.578 396.54" stroke="#CE7768" stroke-linecap="round"/>
<path d="M562.658 394.504L547.487 402.677" stroke="#CE7768" stroke-linecap="round"/>
<path fill-rule="evenodd" clip-rule="evenodd" d="M381.206 220.026C371.466 241.154 371.466 256.269 381.206 265.371C395.816 279.025 392.068 226.009 390.324 221.12C389.162 217.861 386.122 217.496 381.206 220.026Z" fill="#222652"/>
<path fill-rule="evenodd" clip-rule="evenodd" d="M420.059 220.026C429.8 241.154 429.8 256.269 420.059 265.371C405.449 279.025 409.198 226.009 410.941 221.12C412.104 217.861 415.143 217.496 420.059 220.026Z" fill="#222652"/>
<path fill-rule="evenodd" clip-rule="evenodd" d="M394.195 244.923C385.8 249.107 379.82 251.807 376.255 253.021C365.735 256.603 357.721 257.511 352.643 260.73C341.155 268.013 338.53 296.842 336.845 309.648C335.16 322.455 333.463 339.479 329.013 345.493C326.08 349.458 307.573 363.701 273.493 388.223C272.769 388.744 271.857 388.932 270.986 388.74C266.811 387.821 262.131 387.361 256.946 387.361C248.319 387.361 238.457 387.848 232.397 383.891C226.336 379.934 228.02 388.984 232.397 391.342C235.314 392.914 237.582 393.969 239.199 394.504C233.3 396.448 227.042 396.768 220.424 395.466C210.498 393.513 212.958 398.977 221.783 400.41C227.667 401.366 233.191 402.068 238.356 402.517C250.285 408.671 258.073 411.747 261.718 411.747C265.363 411.747 270.97 409.269 278.538 404.312L317.19 387.139C338.054 377.869 353.84 359.97 360.425 338.117L360.525 337.785C365.878 348.947 368.554 361.351 368.554 374.997C374.726 385.912 385.263 391.369 400.167 391.369C415.07 391.369 426.863 385.912 435.546 374.997C433.658 359.687 434.563 349.176 438.258 343.464C443.801 334.896 450.954 320.056 440.797 303.217C434.026 291.991 432.275 275.259 435.546 253.021C426.31 251.642 418.745 249.26 412.85 245.876L394.195 244.923Z" fill="#FFA798"/>
<path opacity="0.5" fill-rule="evenodd" clip-rule="evenodd" d="M350.694 291.556C353.735 295.499 357.587 298.429 362.249 300.345L362.718 300.533L378.439 309.15L364.555 347.961C363.536 344.753 362.322 341.636 360.914 338.608L360.525 337.785L360.425 338.117C356.495 351.159 349.287 362.793 339.679 372.025C349.21 359.45 354.933 342.934 352.213 331.629L352.124 331.273C349.069 319.475 348.593 306.236 350.694 291.556Z" fill="#E08F81"/>
<path fill-rule="evenodd" clip-rule="evenodd" d="M389.685 235.321H413.678V258.015C413.678 264.638 408.307 270.006 401.682 270.006C395.056 270.006 389.685 264.638 389.685 258.015V235.321Z" fill="#FFA798"/>
<path fill-rule="evenodd" clip-rule="evenodd" d="M413.678 235.321V237.827C410.762 244.491 402.765 247.895 389.686 248.038L389.685 235.321H413.678Z" fill="#E08F81"/>
<path fill-rule="evenodd" clip-rule="evenodd" d="M377.86 211.31C377.003 195.944 378.579 185.873 382.586 181.098C388.596 173.935 394.474 171.881 404.848 173.078C415.222 174.274 422.811 181.238 424.271 188.262C425.244 192.945 425.497 200.095 425.029 209.713C422.057 217.624 420.571 221.58 420.571 221.58C420.571 221.58 407.068 219.589 380.062 215.606L377.86 211.31Z" fill="#222652"/>
<path fill-rule="evenodd" clip-rule="evenodd" d="M402.964 183.613C393.153 183.613 383.367 184.775 382.975 197.393C382.713 205.805 382.108 210.284 381.158 210.829C379.521 207.633 378.035 206.195 376.701 206.513C374.7 206.991 373.884 210.267 374.953 213.605C376.022 216.943 379.49 224.128 383.374 224.128C385.482 232.784 390.083 238.924 397.177 242.547C399.846 243.641 402.089 244.056 403.906 243.791C406.63 243.393 414.105 241.882 420.254 224.128C422.146 223.911 423.562 222.751 424.501 220.647C425.909 217.491 427.868 213.605 427.803 209.724C427.738 205.843 423.442 204.178 421.789 209.724C420.99 207.606 420.591 203.496 420.591 197.393C420.591 188.24 412.776 183.613 402.964 183.613Z" fill="#FFA798"/>
<path d="M387.812 202.849C390.511 201.027 394.018 200.572 398.333 201.483" stroke="#3E3E49" stroke-width="2" stroke-linecap="round"/>
<path d="M416.042 202.849C413.343 201.027 409.836 200.572 405.521 201.483" stroke="#3E3E49" stroke-width="2" stroke-linecap="round"/>
<path d="M405.674 207.407C408.83 208.814 412.063 208.814 415.373 207.407" stroke="#CE7768" stroke-linecap="round"/>
<path d="M389.206 207.407C392.362 208.814 395.595 208.814 398.905 207.407" stroke="#CE7768" stroke-linecap="round"/>
<path fill-rule="evenodd" clip-rule="evenodd" d="M397.688 219.246C400.55 221.171 403.212 221.171 405.674 219.246C404.623 221.223 403.326 222.212 401.784 222.212C400.241 222.212 398.876 221.223 397.688 219.246Z" fill="#E08F80"/>
<path opacity="0.3" fill-rule="evenodd" clip-rule="evenodd" d="M394.869 227.678C399.574 229.973 404.28 229.973 408.985 227.678C406.698 229.299 404.19 230.082 401.461 230.027C398.732 229.973 396.535 229.19 394.869 227.678Z" fill="white"/>
<path d="M394.869 227.678C399.574 229.769 404.28 229.769 408.985 227.678" stroke="#CE7768" stroke-linecap="round"/>
<path d="M378.847 209.398C381.122 212.554 381.881 215.353 381.122 217.795" stroke="#CE7768" stroke-linecap="round"/>
<path d="M381.407 215.803L377.574 213.596" stroke="#CE7768" stroke-linecap="round"/>
<path d="M424.047 209.398C421.772 212.554 421.014 215.353 421.772 217.795" stroke="#CE7768" stroke-linecap="round"/>
<path d="M421.488 215.803L425.321 213.596" stroke="#CE7768" stroke-linecap="round"/>
<path fill-rule="evenodd" clip-rule="evenodd" d="M415.373 184.419C407.843 194.446 396.521 199.459 381.407 199.459L384.564 184.419L401.143 176.332L415.373 184.419Z" fill="#222652"/>
<path fill-rule="evenodd" clip-rule="evenodd" d="M412.907 182.786C413.967 186.934 414.789 189.821 415.373 191.445C417.167 196.437 420.609 200.267 421.488 205.506L420.378 184.344L412.907 182.786Z" fill="#222652"/>
<path d="M413.655 185.341C406.023 196.486 395.801 201.192 382.989 199.459" stroke="#222652"/>
<path fill-rule="evenodd" clip-rule="evenodd" d="M380.784 251.244L380.456 253.228L380.022 255.928L379.718 257.89L379.43 259.798L379.16 261.653L378.907 263.453L378.748 264.624L378.524 266.334L378.385 267.445L378.253 268.531L378.07 270.116L377.957 271.143L377.852 272.145L377.755 273.124L377.666 274.079L377.584 275.01L377.511 275.917L377.444 276.8L377.386 277.659L377.335 278.494L377.292 279.305L377.257 280.092L377.229 280.856L377.209 281.595C377.207 281.716 377.204 281.836 377.202 281.956L377.194 282.659C377.193 282.774 377.193 282.888 377.193 283.002L377.196 283.669L377.207 284.313L377.226 284.932L377.253 285.528L377.287 286.099C377.299 286.286 377.313 286.469 377.329 286.647L377.378 287.171C377.601 289.303 378.026 290.812 378.651 291.698C382.365 296.956 391.581 301.855 418.962 297.634L419.798 297.503C434.56 295.159 434.219 298.743 418.774 308.255L417.572 308.989L416.312 309.745C416.097 309.873 415.88 310.002 415.66 310.132L414.313 310.923L412.908 311.736L411.444 312.573L409.923 313.432L408.343 314.314L406.706 315.219C406.428 315.371 406.148 315.525 405.865 315.68L404.141 316.619C403.848 316.777 403.554 316.936 403.256 317.097L369.441 300.822L375.021 253.433C375.428 253.299 375.839 253.162 376.255 253.021L376.84 252.816L377.466 252.586L378.133 252.331L378.839 252.052L379.587 251.747L380.374 251.418C380.509 251.361 380.645 251.303 380.784 251.244Z" fill="#E08F81"/>
<path opacity="0.5" fill-rule="evenodd" clip-rule="evenodd" d="M385.487 319.583L436.181 348.071C435.908 348.954 435.67 349.897 435.468 350.9C424.008 358.418 409.927 362.811 393.226 364.079L392.429 364.137C366.449 365.947 379.514 378.707 407.859 390.846C405.395 391.195 402.831 391.369 400.167 391.369C385.263 391.369 374.726 385.912 368.554 374.997C368.554 364.602 367.001 354.927 363.894 345.972L385.487 319.583Z" fill="#E08F80"/>
<path fill-rule="evenodd" clip-rule="evenodd" d="M235.461 401.248C234.569 401.006 233.265 400.015 231.548 398.275L226.641 391.408C225.734 390.139 224.374 389.268 222.842 388.976C222.167 388.848 221.515 389.29 221.387 389.965C221.338 390.221 221.371 390.486 221.481 390.723L226.278 401.013C227.642 403.939 230.226 406.116 233.342 406.965L238.113 408.265C239.451 411.71 243.449 413.135 250.108 412.541C253.435 414.906 258.9 414.345 266.503 410.858" fill="#FFA698"/>
<path d="M235.461 401.248C234.569 401.006 233.265 400.015 231.548 398.275L226.641 391.408C225.734 390.139 224.374 389.268 222.842 388.976C222.167 388.848 221.515 389.29 221.387 389.965C221.338 390.221 221.371 390.486 221.481 390.723L226.278 401.013C227.642 403.939 230.226 406.116 233.342 406.965L238.113 408.265C239.451 411.71 243.449 413.135 250.108 412.541C253.435 414.906 258.9 414.345 266.503 410.858" stroke="#CE7768"/>
<path fill-rule="evenodd" clip-rule="evenodd" d="M238.113 408.265L232.341 393.34C232.014 392.494 232.435 391.544 233.281 391.217C233.582 391.101 233.91 391.076 234.225 391.145C236.101 391.557 237.667 392.843 238.435 394.602L243.479 406.152L248.963 408.265" fill="#FFA698"/>
<path d="M238.113 408.265L232.341 393.34C232.014 392.494 232.435 391.544 233.281 391.217C233.582 391.101 233.91 391.076 234.225 391.145C236.101 391.557 237.667 392.843 238.435 394.602L243.479 406.152L248.963 408.265" stroke="#CE7768"/>
<path fill-rule="evenodd" clip-rule="evenodd" d="M250.108 412.541L242.646 400.949C242.302 400.415 242.457 399.705 242.99 399.362C243.249 399.195 243.564 399.14 243.865 399.208C245.653 399.612 247.286 400.521 248.572 401.827L253.998 407.343C256.814 406.174 260.982 405.59 266.503 405.59" fill="#FFA698"/>
<path d="M250.108 412.541L242.646 400.949C242.302 400.415 242.457 399.705 242.99 399.362C243.249 399.195 243.564 399.14 243.865 399.208C245.653 399.612 247.286 400.521 248.572 401.827L253.998 407.343C256.814 406.174 260.982 405.59 266.503 405.59" stroke="#CE7768"/>
<path d="M373.171 254.016C369.511 271.754 366.486 282.598 364.103 286.772C352.554 306.998 352.937 313.938 354.253 322.213C356.73 337.792 361.597 335.019 365.918 352.643C390.2 361.387 413.303 361.166 435.226 351.982C436.845 346.525 439.239 341.024 442.41 335.477C449.561 322.213 446.848 311.422 440.794 298.149C436.681 289.133 434.29 273.955 433.619 252.616L426.148 251.141C427.327 271.685 427.292 283.562 426.045 286.772C424.121 291.723 423.014 299.993 401.45 299.993C379.886 299.993 375.027 293.624 375.355 284.392C375.564 278.5 377.137 267.512 380.115 251.507L373.171 254.016Z" fill="#FF6868"/>
<path d="M438.393 343.405C437.126 346.276 436.071 349.135 435.226 351.982C413.303 361.166 390.2 361.387 365.918 352.643C365.636 351.494 365.352 350.431 365.066 349.444L364.821 348.616C364.616 347.941 364.411 347.304 364.205 346.7L363.958 345.991L363.711 345.312C363.67 345.202 363.629 345.092 363.587 344.984L363.34 344.348C363.299 344.245 363.258 344.142 363.216 344.04C371.489 347.986 382.201 350.207 395.353 350.703C408.3 351.192 422.559 348.79 438.13 343.495L438.393 343.405Z" fill="#E45A5A"/>
<path d="M239.199 394.504C249.911 399.182 258.756 400.543 265.736 398.589" stroke="#CE7768" stroke-linecap="round"/>
<path d="M239.199 394.504C249.532 400.571 255.236 403.604 256.313 403.604" stroke="#CE7768" stroke-linecap="round"/>
</svg>
